# Tiled2Unity generated file. Do not modify by hand.
# Wavefront file for 'world_mesh_0004.obj'

# Vertices (Count = 564)
v -16 -1 0
v -17 -1 0
v -17 0 0
v -16 0 0
v -15 -1 0
v -16 -1 0
v -16 0 0
v -15 0 0
v -14 -1 0
v -15 -1 0
v -15 0 0
v -14 0 0
v -16 -2 0
v -17 -2 0
v -17 -1 0
v -16 -1 0
v -15 -2 0
v -16 -2 0
v -16 -1 0
v -15 -1 0
v -14 -2 0
v -15 -2 0
v -15 -1 0
v -14 -1 0
v -16 -3 0
v -17 -3 0
v -17 -2 0
v -16 -2 0
v -15 -3 0
v -16 -3 0
v -16 -2 0
v -15 -2 0
v -14 -3 0
v -15 -3 0
v -15 -2 0
v -14 -2 0
v -16 -4 0
v -17 -4 0
v -17 -3 0
v -16 -3 0
v -15 -4 0
v -16 -4 0
v -16 -3 0
v -15 -3 0
v -14 -4 0
v -15 -4 0
v -15 -3 0
v -14 -3 0
v -16 -5 0
v -17 -5 0
v -17 -4 0
v -16 -4 0
v -15 -5 0
v -16 -5 0
v -16 -4 0
v -15 -4 0
v -14 -5 0
v -15 -5 0
v -15 -4 0
v -14 -4 0
v -16 -6 0
v -17 -6 0
v -17 -5 0
v -16 -5 0
v -15 -6 0
v -16 -6 0
v -16 -5 0
v -15 -5 0
v -14 -6 0
v -15 -6 0
v -15 -5 0
v -14 -5 0
v -16 -7 0
v -17 -7 0
v -17 -6 0
v -16 -6 0
v -15 -7 0
v -16 -7 0
v -16 -6 0
v -15 -6 0
v -14 -7 0
v -15 -7 0
v -15 -6 0
v -14 -6 0
v -16 -8 0
v -17 -8 0
v -17 -7 0
v -16 -7 0
v -15 -8 0
v -16 -8 0
v -16 -7 0
v -15 -7 0
v -14 -8 0
v -15 -8 0
v -15 -7 0
v -14 -7 0
v -16 -9 0
v -17 -9 0
v -17 -8 0
v -16 -8 0
v -15 -9 0
v -16 -9 0
v -16 -8 0
v -15 -8 0
v -14 -9 0
v -15 -9 0
v -15 -8 0
v -14 -8 0
v -16 -10 0
v -17 -10 0
v -17 -9 0
v -16 -9 0
v -15 -10 0
v -16 -10 0
v -16 -9 0
v -15 -9 0
v -14 -10 0
v -15 -10 0
v -15 -9 0
v -14 -9 0
v -24 -11 0
v -25 -11 0
v -25 -10 0
v -24 -10 0
v -23 -11 0
v -24 -11 0
v -24 -10 0
v -23 -10 0
v -22 -11 0
v -23 -11 0
v -23 -10 0
v -22 -10 0
v -21 -11 0
v -22 -11 0
v -22 -10 0
v -21 -10 0
v -20 -11 0
v -21 -11 0
v -21 -10 0
v -20 -10 0
v -19 -11 0
v -20 -11 0
v -20 -10 0
v -19 -10 0
v -18 -11 0
v -19 -11 0
v -19 -10 0
v -18 -10 0
v -17 -11 0
v -18 -11 0
v -18 -10 0
v -17 -10 0
v -16 -11 0
v -17 -11 0
v -17 -10 0
v -16 -10 0
v -15 -11 0
v -16 -11 0
v -16 -10 0
v -15 -10 0
v -14 -11 0
v -15 -11 0
v -15 -10 0
v -14 -10 0
v -13 -11 0
v -14 -11 0
v -14 -10 0
v -13 -10 0
v -12 -11 0
v -13 -11 0
v -13 -10 0
v -12 -10 0
v -11 -11 0
v -12 -11 0
v -12 -10 0
v -11 -10 0
v -10 -11 0
v -11 -11 0
v -11 -10 0
v -10 -10 0
v -9 -11 0
v -10 -11 0
v -10 -10 0
v -9 -10 0
v -8 -11 0
v -9 -11 0
v -9 -10 0
v -8 -10 0
v -7 -11 0
v -8 -11 0
v -8 -10 0
v -7 -10 0
v -6 -11 0
v -7 -11 0
v -7 -10 0
v -6 -10 0
v -5 -11 0
v -6 -11 0
v -6 -10 0
v -5 -10 0
v -4 -11 0
v -5 -11 0
v -5 -10 0
v -4 -10 0
v -3 -11 0
v -4 -11 0
v -4 -10 0
v -3 -10 0
v -2 -11 0
v -3 -11 0
v -3 -10 0
v -2 -10 0
v -1 -11 0
v -2 -11 0
v -2 -10 0
v -1 -10 0
v 0 -11 0
v -1 -11 0
v -1 -10 0
v 0 -10 0
v -24 -12 0
v -25 -12 0
v -25 -11 0
v -24 -11 0
v -23 -12 0
v -24 -12 0
v -24 -11 0
v -23 -11 0
v -22 -12 0
v -23 -12 0
v -23 -11 0
v -22 -11 0
v -21 -12 0
v -22 -12 0
v -22 -11 0
v -21 -11 0
v -20 -12 0
v -21 -12 0
v -21 -11 0
v -20 -11 0
v -19 -12 0
v -20 -12 0
v -20 -11 0
v -19 -11 0
v -18 -12 0
v -19 -12 0
v -19 -11 0
v -18 -11 0
v -17 -12 0
v -18 -12 0
v -18 -11 0
v -17 -11 0
v -16 -12 0
v -17 -12 0
v -17 -11 0
v -16 -11 0
v -15 -12 0
v -16 -12 0
v -16 -11 0
v -15 -11 0
v -14 -12 0
v -15 -12 0
v -15 -11 0
v -14 -11 0
v -13 -12 0
v -14 -12 0
v -14 -11 0
v -13 -11 0
v -12 -12 0
v -13 -12 0
v -13 -11 0
v -12 -11 0
v -11 -12 0
v -12 -12 0
v -12 -11 0
v -11 -11 0
v -10 -12 0
v -11 -12 0
v -11 -11 0
v -10 -11 0
v -9 -12 0
v -10 -12 0
v -10 -11 0
v -9 -11 0
v -8 -12 0
v -9 -12 0
v -9 -11 0
v -8 -11 0
v -7 -12 0
v -8 -12 0
v -8 -11 0
v -7 -11 0
v -6 -12 0
v -7 -12 0
v -7 -11 0
v -6 -11 0
v -5 -12 0
v -6 -12 0
v -6 -11 0
v -5 -11 0
v -4 -12 0
v -5 -12 0
v -5 -11 0
v -4 -11 0
v -3 -12 0
v -4 -12 0
v -4 -11 0
v -3 -11 0
v -2 -12 0
v -3 -12 0
v -3 -11 0
v -2 -11 0
v -1 -12 0
v -2 -12 0
v -2 -11 0
v -1 -11 0
v 0 -12 0
v -1 -12 0
v -1 -11 0
v 0 -11 0
v -24 -13 0
v -25 -13 0
v -25 -12 0
v -24 -12 0
v -23 -13 0
v -24 -13 0
v -24 -12 0
v -23 -12 0
v -22 -13 0
v -23 -13 0
v -23 -12 0
v -22 -12 0
v -21 -13 0
v -22 -13 0
v -22 -12 0
v -21 -12 0
v -20 -13 0
v -21 -13 0
v -21 -12 0
v -20 -12 0
v -19 -13 0
v -20 -13 0
v -20 -12 0
v -19 -12 0
v -18 -13 0
v -19 -13 0
v -19 -12 0
v -18 -12 0
v -17 -13 0
v -18 -13 0
v -18 -12 0
v -17 -12 0
v -16 -13 0
v -17 -13 0
v -17 -12 0
v -16 -12 0
v -15 -13 0
v -16 -13 0
v -16 -12 0
v -15 -12 0
v -14 -13 0
v -15 -13 0
v -15 -12 0
v -14 -12 0
v -13 -13 0
v -14 -13 0
v -14 -12 0
v -13 -12 0
v -12 -13 0
v -13 -13 0
v -13 -12 0
v -12 -12 0
v -11 -13 0
v -12 -13 0
v -12 -12 0
v -11 -12 0
v -10 -13 0
v -11 -13 0
v -11 -12 0
v -10 -12 0
v -9 -13 0
v -10 -13 0
v -10 -12 0
v -9 -12 0
v -8 -13 0
v -9 -13 0
v -9 -12 0
v -8 -12 0
v -7 -13 0
v -8 -13 0
v -8 -12 0
v -7 -12 0
v -6 -13 0
v -7 -13 0
v -7 -12 0
v -6 -12 0
v -5 -13 0
v -6 -13 0
v -6 -12 0
v -5 -12 0
v -4 -13 0
v -5 -13 0
v -5 -12 0
v -4 -12 0
v -3 -13 0
v -4 -13 0
v -4 -12 0
v -3 -12 0
v -2 -13 0
v -3 -13 0
v -3 -12 0
v -2 -12 0
v -1 -13 0
v -2 -13 0
v -2 -12 0
v -1 -12 0
v 0 -13 0
v -1 -13 0
v -1 -12 0
v 0 -12 0
v -11 -14 0
v -12 -14 0
v -12 -13 0
v -11 -13 0
v -10 -14 0
v -11 -14 0
v -11 -13 0
v -10 -13 0
v -9 -14 0
v -10 -14 0
v -10 -13 0
v -9 -13 0
v -11 -15 0
v -12 -15 0
v -12 -14 0
v -11 -14 0
v -10 -15 0
v -11 -15 0
v -11 -14 0
v -10 -14 0
v -9 -15 0
v -10 -15 0
v -10 -14 0
v -9 -14 0
v -11 -16 0
v -12 -16 0
v -12 -15 0
v -11 -15 0
v -10 -16 0
v -11 -16 0
v -11 -15 0
v -10 -15 0
v -9 -16 0
v -10 -16 0
v -10 -15 0
v -9 -15 0
v -11 -17 0
v -12 -17 0
v -12 -16 0
v -11 -16 0
v -10 -17 0
v -11 -17 0
v -11 -16 0
v -10 -16 0
v -9 -17 0
v -10 -17 0
v -10 -16 0
v -9 -16 0
v -11 -18 0
v -12 -18 0
v -12 -17 0
v -11 -17 0
v -10 -18 0
v -11 -18 0
v -11 -17 0
v -10 -17 0
v -9 -18 0
v -10 -18 0
v -10 -17 0
v -9 -17 0
v -11 -19 0
v -12 -19 0
v -12 -18 0
v -11 -18 0
v -10 -19 0
v -11 -19 0
v -11 -18 0
v -10 -18 0
v -9 -19 0
v -10 -19 0
v -10 -18 0
v -9 -18 0
v -11 -20 0
v -12 -20 0
v -12 -19 0
v -11 -19 0
v -10 -20 0
v -11 -20 0
v -11 -19 0
v -10 -19 0
v -9 -20 0
v -10 -20 0
v -10 -19 0
v -9 -19 0
v -11 -21 0
v -12 -21 0
v -12 -20 0
v -11 -20 0
v -10 -21 0
v -11 -21 0
v -11 -20 0
v -10 -20 0
v -9 -21 0
v -10 -21 0
v -10 -20 0
v -9 -20 0
v -11 -22 0
v -12 -22 0
v -12 -21 0
v -11 -21 0
v -10 -22 0
v -11 -22 0
v -11 -21 0
v -10 -21 0
v -9 -22 0
v -10 -22 0
v -10 -21 0
v -9 -21 0
v -11 -23 0
v -12 -23 0
v -12 -22 0
v -11 -22 0
v -10 -23 0
v -11 -23 0
v -11 -22 0
v -10 -22 0
v -9 -23 0
v -10 -23 0
v -10 -22 0
v -9 -22 0
v -11 -24 0
v -12 -24 0
v -12 -23 0
v -11 -23 0
v -10 -24 0
v -11 -24 0
v -11 -23 0
v -10 -23 0
v -9 -24 0
v -10 -24 0
v -10 -23 0
v -9 -23 0
v -11 -25 0
v -12 -25 0
v -12 -24 0
v -11 -24 0
v -10 -25 0
v -11 -25 0
v -11 -24 0
v -10 -24 0
v -9 -25 0
v -10 -25 0
v -10 -24 0
v -9 -24 0

# Texture cooridinates (Count = 40)
vt 0.625 0.90625
vt 0.640625 0.90625
vt 0.640625 0.921875
vt 0.625 0.921875
vt 0.609375 0.90625
vt 0.609375 0.921875
vt 0.578125 0.90625
vt 0.59375 0.90625
vt 0.59375 0.921875
vt 0.578125 0.921875
vt 0.625 0.890625
vt 0.640625 0.890625
vt 0.625 0.828125
vt 0.640625 0.828125
vt 0.640625 0.84375
vt 0.625 0.84375
vt 0.578125 0.890625
vt 0.59375 0.890625
vt 0.625 0.875
vt 0.640625 0.875
vt 0.65625 0.828125
vt 0.65625 0.84375
vt 0.578125 0.875
vt 0.59375 0.875
vt 0.640625 0.8125
vt 0.65625 0.8125
vt 0.625 0.8125
vt 0.5625 0.8125
vt 0.578125 0.8125
vt 0.578125 0.828125
vt 0.5625 0.828125
vt 0.59375 0.8125
vt 0.59375 0.828125
vt 0.59375 0.859375
vt 0.609375 0.859375
vt 0.609375 0.875
vt 0.625 0.859375
vt 0.578125 0.84375
vt 0.5625 0.84375
vt 0.59375 0.84375

# Normal
vn 0 0 -1

# Mesh description
g world_mesh_0004

# Faces
f 1/1/1 2/2/1 3/3/1 4/4/1
f 5/5/1 6/1/1 7/4/1 8/6/1
f 9/7/1 10/8/1 11/9/1 12/10/1
f 13/11/1 14/12/1 15/2/1 16/1/1
f 17/13/1 18/14/1 19/15/1 20/16/1
f 21/17/1 22/18/1 23/8/1 24/7/1
f 25/19/1 26/20/1 27/12/1 28/11/1
f 29/14/1 30/21/1 31/22/1 32/15/1
f 33/23/1 34/24/1 35/18/1 36/17/1
f 37/19/1 38/20/1 39/12/1 40/11/1
f 41/13/1 42/14/1 43/15/1 44/16/1
f 45/23/1 46/24/1 47/18/1 48/17/1
f 49/11/1 50/12/1 51/2/1 52/1/1
f 53/14/1 54/21/1 55/22/1 56/15/1
f 57/17/1 58/18/1 59/8/1 60/7/1
f 61/11/1 62/12/1 63/2/1 64/1/1
f 65/13/1 66/14/1 67/15/1 68/16/1
f 69/23/1 70/24/1 71/18/1 72/17/1
f 73/11/1 74/12/1 75/2/1 76/1/1
f 77/25/1 78/26/1 79/21/1 80/14/1
f 81/23/1 82/24/1 83/18/1 84/17/1
f 85/19/1 86/20/1 87/12/1 88/11/1
f 89/27/1 90/25/1 91/14/1 92/13/1
f 93/23/1 94/24/1 95/18/1 96/17/1
f 97/19/1 98/20/1 99/12/1 100/11/1
f 101/14/1 102/21/1 103/22/1 104/15/1
f 105/17/1 106/18/1 107/8/1 108/7/1
f 109/19/1 110/20/1 111/12/1 112/11/1
f 113/25/1 114/26/1 115/21/1 116/14/1
f 117/23/1 118/24/1 119/18/1 120/17/1
f 121/8/1 122/5/1 123/6/1 124/9/1
f 125/5/1 126/1/1 127/4/1 128/6/1
f 129/8/1 130/5/1 131/6/1 132/9/1
f 133/5/1 134/1/1 135/4/1 136/6/1
f 137/8/1 138/5/1 139/6/1 140/9/1
f 141/5/1 142/1/1 143/4/1 144/6/1
f 145/5/1 146/1/1 147/4/1 148/6/1
f 149/5/1 150/1/1 151/4/1 152/6/1
f 153/28/1 154/29/1 155/30/1 156/31/1
f 157/14/1 158/21/1 159/22/1 160/15/1
f 161/29/1 162/32/1 163/33/1 164/30/1
f 165/5/1 166/1/1 167/4/1 168/6/1
f 169/8/1 170/5/1 171/6/1 172/9/1
f 173/5/1 174/1/1 175/4/1 176/6/1
f 177/5/1 178/1/1 179/4/1 180/6/1
f 181/5/1 182/1/1 183/4/1 184/6/1
f 185/8/1 186/5/1 187/6/1 188/9/1
f 189/8/1 190/5/1 191/6/1 192/9/1
f 193/8/1 194/5/1 195/6/1 196/9/1
f 197/8/1 198/5/1 199/6/1 200/9/1
f 201/5/1 202/1/1 203/4/1 204/6/1
f 205/5/1 206/1/1 207/4/1 208/6/1
f 209/8/1 210/5/1 211/6/1 212/9/1
f 213/8/1 214/5/1 215/6/1 216/9/1
f 217/8/1 218/5/1 219/6/1 220/9/1
f 221/27/1 222/25/1 223/14/1 224/13/1
f 225/27/1 226/25/1 227/14/1 228/13/1
f 229/27/1 230/25/1 231/14/1 232/13/1
f 233/27/1 234/25/1 235/14/1 236/13/1
f 237/25/1 238/26/1 239/21/1 240/14/1
f 241/27/1 242/25/1 243/14/1 244/13/1
f 245/13/1 246/14/1 247/15/1 248/16/1
f 249/25/1 250/26/1 251/21/1 252/14/1
f 253/27/1 254/25/1 255/14/1 256/13/1
f 257/13/1 258/14/1 259/15/1 260/16/1
f 261/25/1 262/26/1 263/21/1 264/14/1
f 265/25/1 266/26/1 267/21/1 268/14/1
f 269/13/1 270/14/1 271/15/1 272/16/1
f 273/27/1 274/25/1 275/14/1 276/13/1
f 277/14/1 278/21/1 279/22/1 280/15/1
f 281/25/1 282/26/1 283/21/1 284/14/1
f 285/14/1 286/21/1 287/22/1 288/15/1
f 289/14/1 290/21/1 291/22/1 292/15/1
f 293/27/1 294/25/1 295/14/1 296/13/1
f 297/14/1 298/21/1 299/22/1 300/15/1
f 301/27/1 302/25/1 303/14/1 304/13/1
f 305/14/1 306/21/1 307/22/1 308/15/1
f 309/25/1 310/26/1 311/21/1 312/14/1
f 313/25/1 314/26/1 315/21/1 316/14/1
f 317/14/1 318/21/1 319/22/1 320/15/1
f 321/34/1 322/35/1 323/36/1 324/24/1
f 325/35/1 326/37/1 327/19/1 328/36/1
f 329/35/1 330/37/1 331/19/1 332/36/1
f 333/35/1 334/37/1 335/19/1 336/36/1
f 337/34/1 338/35/1 339/36/1 340/24/1
f 341/35/1 342/37/1 343/19/1 344/36/1
f 345/35/1 346/37/1 347/19/1 348/36/1
f 349/35/1 350/37/1 351/19/1 352/36/1
f 353/34/1 354/35/1 355/36/1 356/24/1
f 357/35/1 358/37/1 359/19/1 360/36/1
f 361/34/1 362/35/1 363/36/1 364/24/1
f 365/34/1 366/35/1 367/36/1 368/24/1
f 369/34/1 370/35/1 371/36/1 372/24/1
f 373/31/1 374/30/1 375/38/1 376/39/1
f 377/27/1 378/25/1 379/14/1 380/13/1
f 381/30/1 382/33/1 383/40/1 384/38/1
f 385/34/1 386/35/1 387/36/1 388/24/1
f 389/34/1 390/35/1 391/36/1 392/24/1
f 393/34/1 394/35/1 395/36/1 396/24/1
f 397/34/1 398/35/1 399/36/1 400/24/1
f 401/34/1 402/35/1 403/36/1 404/24/1
f 405/35/1 406/37/1 407/19/1 408/36/1
f 409/34/1 410/35/1 411/36/1 412/24/1
f 413/34/1 414/35/1 415/36/1 416/24/1
f 417/35/1 418/37/1 419/19/1 420/36/1
f 421/19/1 422/20/1 423/12/1 424/11/1
f 425/13/1 426/14/1 427/15/1 428/16/1
f 429/23/1 430/24/1 431/18/1 432/17/1
f 433/11/1 434/12/1 435/2/1 436/1/1
f 437/14/1 438/21/1 439/22/1 440/15/1
f 441/23/1 442/24/1 443/18/1 444/17/1
f 445/11/1 446/12/1 447/2/1 448/1/1
f 449/14/1 450/21/1 451/22/1 452/15/1
f 453/17/1 454/18/1 455/8/1 456/7/1
f 457/11/1 458/12/1 459/2/1 460/1/1
f 461/14/1 462/21/1 463/22/1 464/15/1
f 465/17/1 466/18/1 467/8/1 468/7/1
f 469/19/1 470/20/1 471/12/1 472/11/1
f 473/27/1 474/25/1 475/14/1 476/13/1
f 477/23/1 478/24/1 479/18/1 480/17/1
f 481/11/1 482/12/1 483/2/1 484/1/1
f 485/13/1 486/14/1 487/15/1 488/16/1
f 489/17/1 490/18/1 491/8/1 492/7/1
f 493/11/1 494/12/1 495/2/1 496/1/1
f 497/25/1 498/26/1 499/21/1 500/14/1
f 501/17/1 502/18/1 503/8/1 504/7/1
f 505/11/1 506/12/1 507/2/1 508/1/1
f 509/13/1 510/14/1 511/15/1 512/16/1
f 513/23/1 514/24/1 515/18/1 516/17/1
f 517/11/1 518/12/1 519/2/1 520/1/1
f 521/14/1 522/21/1 523/22/1 524/15/1
f 525/23/1 526/24/1 527/18/1 528/17/1
f 529/19/1 530/20/1 531/12/1 532/11/1
f 533/13/1 534/14/1 535/15/1 536/16/1
f 537/23/1 538/24/1 539/18/1 540/17/1
f 541/11/1 542/12/1 543/2/1 544/1/1
f 545/27/1 546/25/1 547/14/1 548/13/1
f 549/23/1 550/24/1 551/18/1 552/17/1
f 553/19/1 554/20/1 555/12/1 556/11/1
f 557/25/1 558/26/1 559/21/1 560/14/1
f 561/17/1 562/18/1 563/8/1 564/7/1

