# Tiled2Unity generated file. Do not modify by hand.
# Wavefront file for 'world_mesh_0003.obj'

# Vertices (Count = 512)
v -24 -1 0
v -25 -1 0
v -25 0 0
v -24 0 0
v -23 -1 0
v -24 -1 0
v -24 0 0
v -23 0 0
v -22 -1 0
v -23 -1 0
v -23 0 0
v -22 0 0
v -21 -1 0
v -22 -1 0
v -22 0 0
v -21 0 0
v -20 -1 0
v -21 -1 0
v -21 0 0
v -20 0 0
v -19 -1 0
v -20 -1 0
v -20 0 0
v -19 0 0
v -18 -1 0
v -19 -1 0
v -19 0 0
v -18 0 0
v -17 -1 0
v -18 -1 0
v -18 0 0
v -17 0 0
v -13 -1 0
v -14 -1 0
v -14 0 0
v -13 0 0
v -12 -1 0
v -13 -1 0
v -13 0 0
v -12 0 0
v -11 -1 0
v -12 -1 0
v -12 0 0
v -11 0 0
v -10 -1 0
v -11 -1 0
v -11 0 0
v -10 0 0
v -9 -1 0
v -10 -1 0
v -10 0 0
v -9 0 0
v -8 -1 0
v -9 -1 0
v -9 0 0
v -8 0 0
v -7 -1 0
v -8 -1 0
v -8 0 0
v -7 0 0
v -6 -1 0
v -7 -1 0
v -7 0 0
v -6 0 0
v -5 -1 0
v -6 -1 0
v -6 0 0
v -5 0 0
v -4 -1 0
v -5 -1 0
v -5 0 0
v -4 0 0
v -3 -1 0
v -4 -1 0
v -4 0 0
v -3 0 0
v -2 -1 0
v -3 -1 0
v -3 0 0
v -2 0 0
v -1 -1 0
v -2 -1 0
v -2 0 0
v -1 0 0
v 0 -1 0
v -1 -1 0
v -1 0 0
v 0 0 0
v -24 -2 0
v -25 -2 0
v -25 -1 0
v -24 -1 0
v 0 -2 0
v -1 -2 0
v -1 -1 0
v 0 -1 0
v -24 -3 0
v -25 -3 0
v -25 -2 0
v -24 -2 0
v 0 -3 0
v -1 -3 0
v -1 -2 0
v 0 -2 0
v -24 -4 0
v -25 -4 0
v -25 -3 0
v -24 -3 0
v -22 -4 0
v -23 -4 0
v -23 -3 0
v -22 -3 0
v -21 -4 0
v -22 -4 0
v -22 -3 0
v -21 -3 0
v -20 -4 0
v -21 -4 0
v -21 -3 0
v -20 -3 0
v -19 -4 0
v -20 -4 0
v -20 -3 0
v -19 -3 0
v -18 -4 0
v -19 -4 0
v -19 -3 0
v -18 -3 0
v -7 -4 0
v -8 -4 0
v -8 -3 0
v -7 -3 0
v -6 -4 0
v -7 -4 0
v -7 -3 0
v -6 -3 0
v 0 -4 0
v -1 -4 0
v -1 -3 0
v 0 -3 0
v -24 -5 0
v -25 -5 0
v -25 -4 0
v -24 -4 0
v -22 -5 0
v -23 -5 0
v -23 -4 0
v -22 -4 0
v -18 -5 0
v -19 -5 0
v -19 -4 0
v -18 -4 0
v -11 -5 0
v -12 -5 0
v -12 -4 0
v -11 -4 0
v -7 -5 0
v -8 -5 0
v -8 -4 0
v -7 -4 0
v -6 -5 0
v -7 -5 0
v -7 -4 0
v -6 -4 0
v 0 -5 0
v -1 -5 0
v -1 -4 0
v 0 -4 0
v -24 -6 0
v -25 -6 0
v -25 -5 0
v -24 -5 0
v -22 -6 0
v -23 -6 0
v -23 -5 0
v -22 -5 0
v -18 -6 0
v -19 -6 0
v -19 -5 0
v -18 -5 0
v -3 -6 0
v -4 -6 0
v -4 -5 0
v -3 -5 0
v 0 -6 0
v -1 -6 0
v -1 -5 0
v 0 -5 0
v -24 -7 0
v -25 -7 0
v -25 -6 0
v -24 -6 0
v -22 -7 0
v -23 -7 0
v -23 -6 0
v -22 -6 0
v -18 -7 0
v -19 -7 0
v -19 -6 0
v -18 -6 0
v 0 -7 0
v -1 -7 0
v -1 -6 0
v 0 -6 0
v -24 -8 0
v -25 -8 0
v -25 -7 0
v -24 -7 0
v -22 -8 0
v -23 -8 0
v -23 -7 0
v -22 -7 0
v -21 -8 0
v -22 -8 0
v -22 -7 0
v -21 -7 0
v -19 -8 0
v -20 -8 0
v -20 -7 0
v -19 -7 0
v -18 -8 0
v -19 -8 0
v -19 -7 0
v -18 -7 0
v 0 -8 0
v -1 -8 0
v -1 -7 0
v 0 -7 0
v -24 -9 0
v -25 -9 0
v -25 -8 0
v -24 -8 0
v -12 -9 0
v -13 -9 0
v -13 -8 0
v -12 -8 0
v -10 -9 0
v -11 -9 0
v -11 -8 0
v -10 -8 0
v -9 -9 0
v -10 -9 0
v -10 -8 0
v -9 -8 0
v -8 -9 0
v -9 -9 0
v -9 -8 0
v -8 -8 0
v -6 -9 0
v -7 -9 0
v -7 -8 0
v -6 -8 0
v 0 -9 0
v -1 -9 0
v -1 -8 0
v 0 -8 0
v -24 -10 0
v -25 -10 0
v -25 -9 0
v -24 -9 0
v -23 -10 0
v -24 -10 0
v -24 -9 0
v -23 -9 0
v -10 -10 0
v -11 -10 0
v -11 -9 0
v -10 -9 0
v -9 -10 0
v -10 -10 0
v -10 -9 0
v -9 -9 0
v -8 -10 0
v -9 -10 0
v -9 -9 0
v -8 -9 0
v 0 -10 0
v -1 -10 0
v -1 -9 0
v 0 -9 0
v -24 -14 0
v -25 -14 0
v -25 -13 0
v -24 -13 0
v -20 -14 0
v -21 -14 0
v -21 -13 0
v -20 -13 0
v -19 -14 0
v -20 -14 0
v -20 -13 0
v -19 -13 0
v 0 -14 0
v -1 -14 0
v -1 -13 0
v 0 -13 0
v -24 -15 0
v -25 -15 0
v -25 -14 0
v -24 -14 0
v -20 -15 0
v -21 -15 0
v -21 -14 0
v -20 -14 0
v -19 -15 0
v -20 -15 0
v -20 -14 0
v -19 -14 0
v -13 -15 0
v -14 -15 0
v -14 -14 0
v -13 -14 0
v 0 -15 0
v -1 -15 0
v -1 -14 0
v 0 -14 0
v -24 -16 0
v -25 -16 0
v -25 -15 0
v -24 -15 0
v -16 -16 0
v -17 -16 0
v -17 -15 0
v -16 -15 0
v 0 -16 0
v -1 -16 0
v -1 -15 0
v 0 -15 0
v -24 -17 0
v -25 -17 0
v -25 -16 0
v -24 -16 0
v 0 -17 0
v -1 -17 0
v -1 -16 0
v 0 -16 0
v -24 -18 0
v -25 -18 0
v -25 -17 0
v -24 -17 0
v -22 -18 0
v -23 -18 0
v -23 -17 0
v -22 -17 0
v -7 -18 0
v -8 -18 0
v -8 -17 0
v -7 -17 0
v 0 -18 0
v -1 -18 0
v -1 -17 0
v 0 -17 0
v -24 -19 0
v -25 -19 0
v -25 -18 0
v -24 -18 0
v 0 -19 0
v -1 -19 0
v -1 -18 0
v 0 -18 0
v -24 -20 0
v -25 -20 0
v -25 -19 0
v -24 -19 0
v -5 -20 0
v -6 -20 0
v -6 -19 0
v -5 -19 0
v -4 -20 0
v -5 -20 0
v -5 -19 0
v -4 -19 0
v 0 -20 0
v -1 -20 0
v -1 -19 0
v 0 -19 0
v -24 -21 0
v -25 -21 0
v -25 -20 0
v -24 -20 0
v -19 -21 0
v -20 -21 0
v -20 -20 0
v -19 -20 0
v -5 -21 0
v -6 -21 0
v -6 -20 0
v -5 -20 0
v -4 -21 0
v -5 -21 0
v -5 -20 0
v -4 -20 0
v 0 -21 0
v -1 -21 0
v -1 -20 0
v 0 -20 0
v -24 -22 0
v -25 -22 0
v -25 -21 0
v -24 -21 0
v 0 -22 0
v -1 -22 0
v -1 -21 0
v 0 -21 0
v -24 -23 0
v -25 -23 0
v -25 -22 0
v -24 -22 0
v -17 -23 0
v -18 -23 0
v -18 -22 0
v -17 -22 0
v 0 -23 0
v -1 -23 0
v -1 -22 0
v 0 -22 0
v -24 -24 0
v -25 -24 0
v -25 -23 0
v -24 -23 0
v 0 -24 0
v -1 -24 0
v -1 -23 0
v 0 -23 0
v -24 -25 0
v -25 -25 0
v -25 -24 0
v -24 -24 0
v -23 -25 0
v -24 -25 0
v -24 -24 0
v -23 -24 0
v -22 -25 0
v -23 -25 0
v -23 -24 0
v -22 -24 0
v -21 -25 0
v -22 -25 0
v -22 -24 0
v -21 -24 0
v -20 -25 0
v -21 -25 0
v -21 -24 0
v -20 -24 0
v -19 -25 0
v -20 -25 0
v -20 -24 0
v -19 -24 0
v -18 -25 0
v -19 -25 0
v -19 -24 0
v -18 -24 0
v -17 -25 0
v -18 -25 0
v -18 -24 0
v -17 -24 0
v -16 -25 0
v -17 -25 0
v -17 -24 0
v -16 -24 0
v -15 -25 0
v -16 -25 0
v -16 -24 0
v -15 -24 0
v -14 -25 0
v -15 -25 0
v -15 -24 0
v -14 -24 0
v -13 -25 0
v -14 -25 0
v -14 -24 0
v -13 -24 0
v -12 -25 0
v -13 -25 0
v -13 -24 0
v -12 -24 0
v -8 -25 0
v -9 -25 0
v -9 -24 0
v -8 -24 0
v -7 -25 0
v -8 -25 0
v -8 -24 0
v -7 -24 0
v -6 -25 0
v -7 -25 0
v -7 -24 0
v -6 -24 0
v -5 -25 0
v -6 -25 0
v -6 -24 0
v -5 -24 0
v -4 -25 0
v -5 -25 0
v -5 -24 0
v -4 -24 0
v -3 -25 0
v -4 -25 0
v -4 -24 0
v -3 -24 0
v -2 -25 0
v -3 -25 0
v -3 -24 0
v -2 -24 0
v -1 -25 0
v -2 -25 0
v -2 -24 0
v -1 -24 0
v 0 -25 0
v -1 -25 0
v -1 -24 0
v 0 -24 0

# Texture cooridinates (Count = 72)
vt 0.075 0.6111111
vt 0.1 0.6111111
vt 0.1 0.6388889
vt 0.075 0.6388889
vt 0.05 0.6111111
vt 0.05 0.6388889
vt 0 0.5277778
vt 0.025 0.5277778
vt 0.025 0.5555556
vt 0 0.5555556
vt 0.05 0.5277778
vt 0.05 0.5555556
vt 0.025 0.6111111
vt 0.025 0.6388889
vt 0.075 0.5833334
vt 0.1 0.5833334
vt 0.025 0.5833334
vt 0.05 0.5833334
vt 0.075 0.5
vt 0.1 0.5
vt 0.1 0.5277778
vt 0.075 0.5277778
vt 0.125 0.5
vt 0.125 0.5277778
vt 0.05 0.5
vt 0.8 0.8888889
vt 0.825 0.8888889
vt 0.825 0.9166667
vt 0.8 0.9166667
vt 0.775 0.8888889
vt 0.775 0.9166667
vt 0.1 0.4722222
vt 0.125 0.4722222
vt 0.175 0.8333333
vt 0.2 0.8333333
vt 0.2 0.8611111
vt 0.175 0.8611111
vt 0.8 0.8611111
vt 0.825 0.8611111
vt 0.775 0.8611111
vt 0.075 0.4722222
vt 0 0.4444444
vt 0.025 0.4444444
vt 0.025 0.4722222
vt 0 0.4722222
vt 0.05 0.4444444
vt 0.05 0.4722222
vt 0.75 0.8611111
vt 0.75 0.8888889
vt 0.725 0.8611111
vt 0.725 0.8888889
vt 0.7 0.8611111
vt 0.7 0.8888889
vt 0.225 0.8333333
vt 0.225 0.8611111
vt 0 0.5833334
vt 0.75 0.8333333
vt 0.775 0.8333333
vt 0.725 0.8333333
vt 0.7 0.8333333
vt 0 0.6111111
vt 0.125 0.9444444
vt 0.15 0.9444444
vt 0.15 0.9722222
vt 0.125 0.9722222
vt 0.1 0.9444444
vt 0.1 0.9722222
vt 0.125 0.9166667
vt 0.15 0.9166667
vt 0.1 0.9166667
vt 0.075 0.5555556
vt 0.1 0.5555556

# Normal
vn 0 0 -1

# Mesh description
g world_mesh_0003

# Faces
f 1/1/1 2/2/1 3/3/1 4/4/1
f 5/5/1 6/1/1 7/4/1 8/6/1
f 9/5/1 10/1/1 11/4/1 12/6/1
f 13/5/1 14/1/1 15/4/1 16/6/1
f 17/5/1 18/1/1 19/4/1 20/6/1
f 21/5/1 22/1/1 23/4/1 24/6/1
f 25/5/1 26/1/1 27/4/1 28/6/1
f 29/7/1 30/8/1 31/9/1 32/10/1
f 33/8/1 34/11/1 35/12/1 36/9/1
f 37/5/1 38/1/1 39/4/1 40/6/1
f 41/5/1 42/1/1 43/4/1 44/6/1
f 45/5/1 46/1/1 47/4/1 48/6/1
f 49/5/1 50/1/1 51/4/1 52/6/1
f 53/5/1 54/1/1 55/4/1 56/6/1
f 57/5/1 58/1/1 59/4/1 60/6/1
f 61/5/1 62/1/1 63/4/1 64/6/1
f 65/5/1 66/1/1 67/4/1 68/6/1
f 69/5/1 70/1/1 71/4/1 72/6/1
f 73/5/1 74/1/1 75/4/1 76/6/1
f 77/5/1 78/1/1 79/4/1 80/6/1
f 81/5/1 82/1/1 83/4/1 84/6/1
f 85/13/1 86/5/1 87/6/1 88/14/1
f 89/15/1 90/16/1 91/2/1 92/1/1
f 93/17/1 94/18/1 95/5/1 96/13/1
f 97/15/1 98/16/1 99/2/1 100/1/1
f 101/17/1 102/18/1 103/5/1 104/13/1
f 105/15/1 106/16/1 107/2/1 108/1/1
f 109/19/1 110/20/1 111/21/1 112/22/1
f 113/20/1 114/23/1 115/24/1 116/21/1
f 117/20/1 118/23/1 119/24/1 120/21/1
f 121/20/1 122/23/1 123/24/1 124/21/1
f 125/25/1 126/19/1 127/22/1 128/11/1
f 129/26/1 130/27/1 131/28/1 132/29/1
f 133/30/1 134/26/1 135/29/1 136/31/1
f 137/17/1 138/18/1 139/5/1 140/13/1
f 141/15/1 142/16/1 143/2/1 144/1/1
f 145/32/1 146/33/1 147/23/1 148/20/1
f 149/32/1 150/33/1 151/23/1 152/20/1
f 153/34/1 154/35/1 155/36/1 156/37/1
f 157/38/1 158/39/1 159/27/1 160/26/1
f 161/40/1 162/38/1 163/26/1 164/30/1
f 165/17/1 166/18/1 167/5/1 168/13/1
f 169/15/1 170/16/1 171/2/1 172/1/1
f 173/32/1 174/33/1 175/23/1 176/20/1
f 177/32/1 178/33/1 179/23/1 180/20/1
f 181/34/1 182/35/1 183/36/1 184/37/1
f 185/17/1 186/18/1 187/5/1 188/13/1
f 189/15/1 190/16/1 191/2/1 192/1/1
f 193/32/1 194/33/1 195/23/1 196/20/1
f 197/32/1 198/33/1 199/23/1 200/20/1
f 201/17/1 202/18/1 203/5/1 204/13/1
f 205/15/1 206/16/1 207/2/1 208/1/1
f 209/41/1 210/32/1 211/20/1 212/19/1
f 213/42/1 214/43/1 215/44/1 216/45/1
f 217/43/1 218/46/1 219/47/1 220/44/1
f 221/47/1 222/41/1 223/19/1 224/25/1
f 225/17/1 226/18/1 227/5/1 228/13/1
f 229/15/1 230/16/1 231/2/1 232/1/1
f 233/34/1 234/35/1 235/36/1 236/37/1
f 237/48/1 238/40/1 239/30/1 240/49/1
f 241/50/1 242/48/1 243/49/1 244/51/1
f 245/52/1 246/50/1 247/51/1 248/53/1
f 249/35/1 250/54/1 251/55/1 252/36/1
f 253/17/1 254/18/1 255/5/1 256/13/1
f 257/10/1 258/9/1 259/17/1 260/56/1
f 261/34/1 262/35/1 263/36/1 264/37/1
f 265/57/1 266/58/1 267/40/1 268/48/1
f 269/59/1 270/57/1 271/48/1 272/50/1
f 273/60/1 274/59/1 275/50/1 276/52/1
f 277/10/1 278/9/1 279/17/1 280/56/1
f 281/56/1 282/17/1 283/13/1 284/61/1
f 285/62/1 286/63/1 287/64/1 288/65/1
f 289/66/1 290/62/1 291/65/1 292/67/1
f 293/56/1 294/17/1 295/13/1 296/61/1
f 297/15/1 298/16/1 299/2/1 300/1/1
f 301/68/1 302/69/1 303/63/1 304/62/1
f 305/70/1 306/68/1 307/62/1 308/66/1
f 309/35/1 310/54/1 311/55/1 312/36/1
f 313/17/1 314/18/1 315/5/1 316/13/1
f 317/15/1 318/16/1 319/2/1 320/1/1
f 321/34/1 322/35/1 323/36/1 324/37/1
f 325/17/1 326/18/1 327/5/1 328/13/1
f 329/15/1 330/16/1 331/2/1 332/1/1
f 333/17/1 334/18/1 335/5/1 336/13/1
f 337/15/1 338/16/1 339/2/1 340/1/1
f 341/35/1 342/54/1 343/55/1 344/36/1
f 345/34/1 346/35/1 347/36/1 348/37/1
f 349/17/1 350/18/1 351/5/1 352/13/1
f 353/15/1 354/16/1 355/2/1 356/1/1
f 357/17/1 358/18/1 359/5/1 360/13/1
f 361/15/1 362/16/1 363/2/1 364/1/1
f 365/26/1 366/27/1 367/28/1 368/29/1
f 369/30/1 370/26/1 371/29/1 372/31/1
f 373/17/1 374/18/1 375/5/1 376/13/1
f 377/15/1 378/16/1 379/2/1 380/1/1
f 381/35/1 382/54/1 383/55/1 384/36/1
f 385/38/1 386/39/1 387/27/1 388/26/1
f 389/40/1 390/38/1 391/26/1 392/30/1
f 393/17/1 394/18/1 395/5/1 396/13/1
f 397/15/1 398/16/1 399/2/1 400/1/1
f 401/17/1 402/18/1 403/5/1 404/13/1
f 405/15/1 406/16/1 407/2/1 408/1/1
f 409/34/1 410/35/1 411/36/1 412/37/1
f 413/17/1 414/18/1 415/5/1 416/13/1
f 417/15/1 418/16/1 419/2/1 420/1/1
f 421/17/1 422/18/1 423/5/1 424/13/1
f 425/71/1 426/72/1 427/16/1 428/15/1
f 429/12/1 430/71/1 431/15/1 432/18/1
f 433/12/1 434/71/1 435/15/1 436/18/1
f 437/12/1 438/71/1 439/15/1 440/18/1
f 441/12/1 442/71/1 443/15/1 444/18/1
f 445/12/1 446/71/1 447/15/1 448/18/1
f 449/12/1 450/71/1 451/15/1 452/18/1
f 453/12/1 454/71/1 455/15/1 456/18/1
f 457/12/1 458/71/1 459/15/1 460/18/1
f 461/12/1 462/71/1 463/15/1 464/18/1
f 465/12/1 466/71/1 467/15/1 468/18/1
f 469/12/1 470/71/1 471/15/1 472/18/1
f 473/7/1 474/8/1 475/9/1 476/10/1
f 477/8/1 478/11/1 479/12/1 480/9/1
f 481/12/1 482/71/1 483/15/1 484/18/1
f 485/12/1 486/71/1 487/15/1 488/18/1
f 489/12/1 490/71/1 491/15/1 492/18/1
f 493/12/1 494/71/1 495/15/1 496/18/1
f 497/12/1 498/71/1 499/15/1 500/18/1
f 501/12/1 502/71/1 503/15/1 504/18/1
f 505/12/1 506/71/1 507/15/1 508/18/1
f 509/9/1 510/12/1 511/18/1 512/17/1

