# Tiled2Unity generated file. Do not modify by hand.
# Wavefront file for 'overworld_mesh_0003.obj'

# Vertices (Count = 16)
v -26 -24 0
v -28 -24 0
v -28 -22 0
v -26 -22 0
v -20 -24 0
v -22 -24 0
v -22 -22 0
v -20 -22 0
v -34 -30 0
v -36 -30 0
v -36 -28 0
v -34 -28 0
v -28 -30 0
v -30 -30 0
v -30 -28 0
v -28 -28 0

# Texture cooridinates (Count = 16)
vt 0.5625 0.84375
vt 0.59375 0.84375
vt 0.59375 0.875
vt 0.5625 0.875
vt 0.625 0.84375
vt 0.65625 0.84375
vt 0.65625 0.875
vt 0.625 0.875
vt 0.5625 0.90625
vt 0.59375 0.90625
vt 0.59375 0.9375
vt 0.5625 0.9375
vt 0.625 0.90625
vt 0.65625 0.90625
vt 0.65625 0.9375
vt 0.625 0.9375

# Normal
vn 0 0 -1

# Mesh description
g overworld_mesh_0003

# Faces
f 1/1/1 2/2/1 3/3/1 4/4/1
f 5/5/1 6/6/1 7/7/1 8/8/1
f 9/9/1 10/10/1 11/11/1 12/12/1
f 13/13/1 14/14/1 15/15/1 16/16/1

