# Tiled2Unity generated file. Do not modify by hand.
# Wavefront file for 'overworld_mesh_0002.obj'

# Vertices (Count = 736)
v -26 -2 0
v -28 -2 0
v -28 0 0
v -26 0 0
v -24 -2 0
v -26 -2 0
v -26 0 0
v -24 0 0
v -22 -2 0
v -24 -2 0
v -24 0 0
v -22 0 0
v -20 -2 0
v -22 -2 0
v -22 0 0
v -20 0 0
v -26 -4 0
v -28 -4 0
v -28 -2 0
v -26 -2 0
v -24 -4 0
v -26 -4 0
v -26 -2 0
v -24 -2 0
v -22 -4 0
v -24 -4 0
v -24 -2 0
v -22 -2 0
v -20 -4 0
v -22 -4 0
v -22 -2 0
v -20 -2 0
v -26 -6 0
v -28 -6 0
v -28 -4 0
v -26 -4 0
v -24 -6 0
v -26 -6 0
v -26 -4 0
v -24 -4 0
v -22 -6 0
v -24 -6 0
v -24 -4 0
v -22 -4 0
v -20 -6 0
v -22 -6 0
v -22 -4 0
v -20 -4 0
v -26 -8 0
v -28 -8 0
v -28 -6 0
v -26 -6 0
v -24 -8 0
v -26 -8 0
v -26 -6 0
v -24 -6 0
v -22 -8 0
v -24 -8 0
v -24 -6 0
v -22 -6 0
v -20 -8 0
v -22 -8 0
v -22 -6 0
v -20 -6 0
v -26 -10 0
v -28 -10 0
v -28 -8 0
v -26 -8 0
v -24 -10 0
v -26 -10 0
v -26 -8 0
v -24 -8 0
v -22 -10 0
v -24 -10 0
v -24 -8 0
v -22 -8 0
v -20 -10 0
v -22 -10 0
v -22 -8 0
v -20 -8 0
v -26 -12 0
v -28 -12 0
v -28 -10 0
v -26 -10 0
v -24 -12 0
v -26 -12 0
v -26 -10 0
v -24 -10 0
v -22 -12 0
v -24 -12 0
v -24 -10 0
v -22 -10 0
v -20 -12 0
v -22 -12 0
v -22 -10 0
v -20 -10 0
v -26 -14 0
v -28 -14 0
v -28 -12 0
v -26 -12 0
v -24 -14 0
v -26 -14 0
v -26 -12 0
v -24 -12 0
v -22 -14 0
v -24 -14 0
v -24 -12 0
v -22 -12 0
v -20 -14 0
v -22 -14 0
v -22 -12 0
v -20 -12 0
v -26 -16 0
v -28 -16 0
v -28 -14 0
v -26 -14 0
v -24 -16 0
v -26 -16 0
v -26 -14 0
v -24 -14 0
v -22 -16 0
v -24 -16 0
v -24 -14 0
v -22 -14 0
v -20 -16 0
v -22 -16 0
v -22 -14 0
v -20 -14 0
v -26 -18 0
v -28 -18 0
v -28 -16 0
v -26 -16 0
v -24 -18 0
v -26 -18 0
v -26 -16 0
v -24 -16 0
v -22 -18 0
v -24 -18 0
v -24 -16 0
v -22 -16 0
v -20 -18 0
v -22 -18 0
v -22 -16 0
v -20 -16 0
v -26 -20 0
v -28 -20 0
v -28 -18 0
v -26 -18 0
v -24 -20 0
v -26 -20 0
v -26 -18 0
v -24 -18 0
v -22 -20 0
v -24 -20 0
v -24 -18 0
v -22 -18 0
v -20 -20 0
v -22 -20 0
v -22 -18 0
v -20 -18 0
v -26 -22 0
v -28 -22 0
v -28 -20 0
v -26 -20 0
v -24 -22 0
v -26 -22 0
v -26 -20 0
v -24 -20 0
v -22 -22 0
v -24 -22 0
v -24 -20 0
v -22 -20 0
v -20 -22 0
v -22 -22 0
v -22 -20 0
v -20 -20 0
v -48 -24 0
v -50 -24 0
v -50 -22 0
v -48 -22 0
v -46 -24 0
v -48 -24 0
v -48 -22 0
v -46 -22 0
v -44 -24 0
v -46 -24 0
v -46 -22 0
v -44 -22 0
v -42 -24 0
v -44 -24 0
v -44 -22 0
v -42 -22 0
v -40 -24 0
v -42 -24 0
v -42 -22 0
v -40 -22 0
v -38 -24 0
v -40 -24 0
v -40 -22 0
v -38 -22 0
v -36 -24 0
v -38 -24 0
v -38 -22 0
v -36 -22 0
v -34 -24 0
v -36 -24 0
v -36 -22 0
v -34 -22 0
v -32 -24 0
v -34 -24 0
v -34 -22 0
v -32 -22 0
v -30 -24 0
v -32 -24 0
v -32 -22 0
v -30 -22 0
v -28 -24 0
v -30 -24 0
v -30 -22 0
v -28 -22 0
v -26 -24 0
v -28 -24 0
v -28 -22 0
v -26 -22 0
v -24 -24 0
v -26 -24 0
v -26 -22 0
v -24 -22 0
v -22 -24 0
v -24 -24 0
v -24 -22 0
v -22 -22 0
v -20 -24 0
v -22 -24 0
v -22 -22 0
v -20 -22 0
v -18 -24 0
v -20 -24 0
v -20 -22 0
v -18 -22 0
v -16 -24 0
v -18 -24 0
v -18 -22 0
v -16 -22 0
v -14 -24 0
v -16 -24 0
v -16 -22 0
v -14 -22 0
v -12 -24 0
v -14 -24 0
v -14 -22 0
v -12 -22 0
v -10 -24 0
v -12 -24 0
v -12 -22 0
v -10 -22 0
v -8 -24 0
v -10 -24 0
v -10 -22 0
v -8 -22 0
v -6 -24 0
v -8 -24 0
v -8 -22 0
v -6 -22 0
v -4 -24 0
v -6 -24 0
v -6 -22 0
v -4 -22 0
v -2 -24 0
v -4 -24 0
v -4 -22 0
v -2 -22 0
v 0 -24 0
v -2 -24 0
v -2 -22 0
v 0 -22 0
v -48 -26 0
v -50 -26 0
v -50 -24 0
v -48 -24 0
v -46 -26 0
v -48 -26 0
v -48 -24 0
v -46 -24 0
v -44 -26 0
v -46 -26 0
v -46 -24 0
v -44 -24 0
v -42 -26 0
v -44 -26 0
v -44 -24 0
v -42 -24 0
v -40 -26 0
v -42 -26 0
v -42 -24 0
v -40 -24 0
v -38 -26 0
v -40 -26 0
v -40 -24 0
v -38 -24 0
v -36 -26 0
v -38 -26 0
v -38 -24 0
v -36 -24 0
v -34 -26 0
v -36 -26 0
v -36 -24 0
v -34 -24 0
v -32 -26 0
v -34 -26 0
v -34 -24 0
v -32 -24 0
v -30 -26 0
v -32 -26 0
v -32 -24 0
v -30 -24 0
v -28 -26 0
v -30 -26 0
v -30 -24 0
v -28 -24 0
v -26 -26 0
v -28 -26 0
v -28 -24 0
v -26 -24 0
v -24 -26 0
v -26 -26 0
v -26 -24 0
v -24 -24 0
v -22 -26 0
v -24 -26 0
v -24 -24 0
v -22 -24 0
v -20 -26 0
v -22 -26 0
v -22 -24 0
v -20 -24 0
v -18 -26 0
v -20 -26 0
v -20 -24 0
v -18 -24 0
v -16 -26 0
v -18 -26 0
v -18 -24 0
v -16 -24 0
v -14 -26 0
v -16 -26 0
v -16 -24 0
v -14 -24 0
v -12 -26 0
v -14 -26 0
v -14 -24 0
v -12 -24 0
v -10 -26 0
v -12 -26 0
v -12 -24 0
v -10 -24 0
v -8 -26 0
v -10 -26 0
v -10 -24 0
v -8 -24 0
v -6 -26 0
v -8 -26 0
v -8 -24 0
v -6 -24 0
v -4 -26 0
v -6 -26 0
v -6 -24 0
v -4 -24 0
v -2 -26 0
v -4 -26 0
v -4 -24 0
v -2 -24 0
v 0 -26 0
v -2 -26 0
v -2 -24 0
v 0 -24 0
v -48 -28 0
v -50 -28 0
v -50 -26 0
v -48 -26 0
v -46 -28 0
v -48 -28 0
v -48 -26 0
v -46 -26 0
v -44 -28 0
v -46 -28 0
v -46 -26 0
v -44 -26 0
v -42 -28 0
v -44 -28 0
v -44 -26 0
v -42 -26 0
v -40 -28 0
v -42 -28 0
v -42 -26 0
v -40 -26 0
v -38 -28 0
v -40 -28 0
v -40 -26 0
v -38 -26 0
v -36 -28 0
v -38 -28 0
v -38 -26 0
v -36 -26 0
v -34 -28 0
v -36 -28 0
v -36 -26 0
v -34 -26 0
v -32 -28 0
v -34 -28 0
v -34 -26 0
v -32 -26 0
v -30 -28 0
v -32 -28 0
v -32 -26 0
v -30 -26 0
v -28 -28 0
v -30 -28 0
v -30 -26 0
v -28 -26 0
v -26 -28 0
v -28 -28 0
v -28 -26 0
v -26 -26 0
v -24 -28 0
v -26 -28 0
v -26 -26 0
v -24 -26 0
v -22 -28 0
v -24 -28 0
v -24 -26 0
v -22 -26 0
v -20 -28 0
v -22 -28 0
v -22 -26 0
v -20 -26 0
v -18 -28 0
v -20 -28 0
v -20 -26 0
v -18 -26 0
v -16 -28 0
v -18 -28 0
v -18 -26 0
v -16 -26 0
v -14 -28 0
v -16 -28 0
v -16 -26 0
v -14 -26 0
v -12 -28 0
v -14 -28 0
v -14 -26 0
v -12 -26 0
v -10 -28 0
v -12 -28 0
v -12 -26 0
v -10 -26 0
v -8 -28 0
v -10 -28 0
v -10 -26 0
v -8 -26 0
v -6 -28 0
v -8 -28 0
v -8 -26 0
v -6 -26 0
v -4 -28 0
v -6 -28 0
v -6 -26 0
v -4 -26 0
v -2 -28 0
v -4 -28 0
v -4 -26 0
v -2 -26 0
v 0 -28 0
v -2 -28 0
v -2 -26 0
v 0 -26 0
v -48 -30 0
v -50 -30 0
v -50 -28 0
v -48 -28 0
v -46 -30 0
v -48 -30 0
v -48 -28 0
v -46 -28 0
v -44 -30 0
v -46 -30 0
v -46 -28 0
v -44 -28 0
v -42 -30 0
v -44 -30 0
v -44 -28 0
v -42 -28 0
v -40 -30 0
v -42 -30 0
v -42 -28 0
v -40 -28 0
v -38 -30 0
v -40 -30 0
v -40 -28 0
v -38 -28 0
v -36 -30 0
v -38 -30 0
v -38 -28 0
v -36 -28 0
v -34 -30 0
v -36 -30 0
v -36 -28 0
v -34 -28 0
v -32 -30 0
v -34 -30 0
v -34 -28 0
v -32 -28 0
v -30 -30 0
v -32 -30 0
v -32 -28 0
v -30 -28 0
v -28 -30 0
v -30 -30 0
v -30 -28 0
v -28 -28 0
v -26 -30 0
v -28 -30 0
v -28 -28 0
v -26 -28 0
v -24 -30 0
v -26 -30 0
v -26 -28 0
v -24 -28 0
v -22 -30 0
v -24 -30 0
v -24 -28 0
v -22 -28 0
v -20 -30 0
v -22 -30 0
v -22 -28 0
v -20 -28 0
v -18 -30 0
v -20 -30 0
v -20 -28 0
v -18 -28 0
v -16 -30 0
v -18 -30 0
v -18 -28 0
v -16 -28 0
v -14 -30 0
v -16 -30 0
v -16 -28 0
v -14 -28 0
v -12 -30 0
v -14 -30 0
v -14 -28 0
v -12 -28 0
v -10 -30 0
v -12 -30 0
v -12 -28 0
v -10 -28 0
v -8 -30 0
v -10 -30 0
v -10 -28 0
v -8 -28 0
v -6 -30 0
v -8 -30 0
v -8 -28 0
v -6 -28 0
v -4 -30 0
v -6 -30 0
v -6 -28 0
v -4 -28 0
v -2 -30 0
v -4 -30 0
v -4 -28 0
v -2 -28 0
v 0 -30 0
v -2 -30 0
v -2 -28 0
v 0 -28 0
v -34 -32 0
v -36 -32 0
v -36 -30 0
v -34 -30 0
v -32 -32 0
v -34 -32 0
v -34 -30 0
v -32 -30 0
v -30 -32 0
v -32 -32 0
v -32 -30 0
v -30 -30 0
v -28 -32 0
v -30 -32 0
v -30 -30 0
v -28 -30 0
v -34 -34 0
v -36 -34 0
v -36 -32 0
v -34 -32 0
v -32 -34 0
v -34 -34 0
v -34 -32 0
v -32 -32 0
v -30 -34 0
v -32 -34 0
v -32 -32 0
v -30 -32 0
v -28 -34 0
v -30 -34 0
v -30 -32 0
v -28 -32 0
v -34 -36 0
v -36 -36 0
v -36 -34 0
v -34 -34 0
v -32 -36 0
v -34 -36 0
v -34 -34 0
v -32 -34 0
v -30 -36 0
v -32 -36 0
v -32 -34 0
v -30 -34 0
v -28 -36 0
v -30 -36 0
v -30 -34 0
v -28 -34 0
v -34 -38 0
v -36 -38 0
v -36 -36 0
v -34 -36 0
v -32 -38 0
v -34 -38 0
v -34 -36 0
v -32 -36 0
v -30 -38 0
v -32 -38 0
v -32 -36 0
v -30 -36 0
v -28 -38 0
v -30 -38 0
v -30 -36 0
v -28 -36 0
v -34 -40 0
v -36 -40 0
v -36 -38 0
v -34 -38 0
v -32 -40 0
v -34 -40 0
v -34 -38 0
v -32 -38 0
v -30 -40 0
v -32 -40 0
v -32 -38 0
v -30 -38 0
v -28 -40 0
v -30 -40 0
v -30 -38 0
v -28 -38 0
v -34 -42 0
v -36 -42 0
v -36 -40 0
v -34 -40 0
v -32 -42 0
v -34 -42 0
v -34 -40 0
v -32 -40 0
v -30 -42 0
v -32 -42 0
v -32 -40 0
v -30 -40 0
v -28 -42 0
v -30 -42 0
v -30 -40 0
v -28 -40 0
v -34 -44 0
v -36 -44 0
v -36 -42 0
v -34 -42 0
v -32 -44 0
v -34 -44 0
v -34 -42 0
v -32 -42 0
v -30 -44 0
v -32 -44 0
v -32 -42 0
v -30 -42 0
v -28 -44 0
v -30 -44 0
v -30 -42 0
v -28 -42 0
v -34 -46 0
v -36 -46 0
v -36 -44 0
v -34 -44 0
v -32 -46 0
v -34 -46 0
v -34 -44 0
v -32 -44 0
v -30 -46 0
v -32 -46 0
v -32 -44 0
v -30 -44 0
v -28 -46 0
v -30 -46 0
v -30 -44 0
v -28 -44 0
v -34 -48 0
v -36 -48 0
v -36 -46 0
v -34 -46 0
v -32 -48 0
v -34 -48 0
v -34 -46 0
v -32 -46 0
v -30 -48 0
v -32 -48 0
v -32 -46 0
v -30 -46 0
v -28 -48 0
v -30 -48 0
v -30 -46 0
v -28 -46 0
v -34 -50 0
v -36 -50 0
v -36 -48 0
v -34 -48 0
v -32 -50 0
v -34 -50 0
v -34 -48 0
v -32 -48 0
v -30 -50 0
v -32 -50 0
v -32 -48 0
v -30 -48 0
v -28 -50 0
v -30 -50 0
v -30 -48 0
v -28 -48 0

# Texture cooridinates (Count = 12)
vt 0.625 0.875
vt 0.65625 0.875
vt 0.65625 0.90625
vt 0.625 0.90625
vt 0.59375 0.875
vt 0.59375 0.90625
vt 0.5625 0.875
vt 0.5625 0.90625
vt 0.625 0.9375
vt 0.59375 0.9375
vt 0.59375 0.84375
vt 0.625 0.84375

# Normal
vn 0 0 -1

# Mesh description
g overworld_mesh_0002

# Faces
f 1/1/1 2/2/1 3/3/1 4/4/1
f 5/5/1 6/1/1 7/4/1 8/6/1
f 9/5/1 10/1/1 11/4/1 12/6/1
f 13/7/1 14/5/1 15/6/1 16/8/1
f 17/1/1 18/2/1 19/3/1 20/4/1
f 21/5/1 22/1/1 23/4/1 24/6/1
f 25/5/1 26/1/1 27/4/1 28/6/1
f 29/7/1 30/5/1 31/6/1 32/8/1
f 33/1/1 34/2/1 35/3/1 36/4/1
f 37/5/1 38/1/1 39/4/1 40/6/1
f 41/5/1 42/1/1 43/4/1 44/6/1
f 45/7/1 46/5/1 47/6/1 48/8/1
f 49/1/1 50/2/1 51/3/1 52/4/1
f 53/5/1 54/1/1 55/4/1 56/6/1
f 57/5/1 58/1/1 59/4/1 60/6/1
f 61/7/1 62/5/1 63/6/1 64/8/1
f 65/1/1 66/2/1 67/3/1 68/4/1
f 69/5/1 70/1/1 71/4/1 72/6/1
f 73/5/1 74/1/1 75/4/1 76/6/1
f 77/7/1 78/5/1 79/6/1 80/8/1
f 81/1/1 82/2/1 83/3/1 84/4/1
f 85/5/1 86/1/1 87/4/1 88/6/1
f 89/5/1 90/1/1 91/4/1 92/6/1
f 93/7/1 94/5/1 95/6/1 96/8/1
f 97/1/1 98/2/1 99/3/1 100/4/1
f 101/5/1 102/1/1 103/4/1 104/6/1
f 105/5/1 106/1/1 107/4/1 108/6/1
f 109/7/1 110/5/1 111/6/1 112/8/1
f 113/1/1 114/2/1 115/3/1 116/4/1
f 117/5/1 118/1/1 119/4/1 120/6/1
f 121/5/1 122/1/1 123/4/1 124/6/1
f 125/7/1 126/5/1 127/6/1 128/8/1
f 129/1/1 130/2/1 131/3/1 132/4/1
f 133/5/1 134/1/1 135/4/1 136/6/1
f 137/5/1 138/1/1 139/4/1 140/6/1
f 141/7/1 142/5/1 143/6/1 144/8/1
f 145/1/1 146/2/1 147/3/1 148/4/1
f 149/5/1 150/1/1 151/4/1 152/6/1
f 153/5/1 154/1/1 155/4/1 156/6/1
f 157/7/1 158/5/1 159/6/1 160/8/1
f 161/1/1 162/2/1 163/3/1 164/4/1
f 165/5/1 166/1/1 167/4/1 168/6/1
f 169/5/1 170/1/1 171/4/1 172/6/1
f 173/7/1 174/5/1 175/6/1 176/8/1
f 177/6/1 178/4/1 179/9/1 180/10/1
f 181/6/1 182/4/1 183/9/1 184/10/1
f 185/6/1 186/4/1 187/9/1 188/10/1
f 189/6/1 190/4/1 191/9/1 192/10/1
f 193/6/1 194/4/1 195/9/1 196/10/1
f 197/6/1 198/4/1 199/9/1 200/10/1
f 201/6/1 202/4/1 203/9/1 204/10/1
f 205/6/1 206/4/1 207/9/1 208/10/1
f 209/6/1 210/4/1 211/9/1 212/10/1
f 213/6/1 214/4/1 215/9/1 216/10/1
f 217/6/1 218/4/1 219/9/1 220/10/1
f 221/5/1 222/1/1 223/4/1 224/6/1
f 225/5/1 226/1/1 227/4/1 228/6/1
f 229/5/1 230/1/1 231/4/1 232/6/1
f 233/5/1 234/1/1 235/4/1 236/6/1
f 237/6/1 238/4/1 239/9/1 240/10/1
f 241/6/1 242/4/1 243/9/1 244/10/1
f 245/6/1 246/4/1 247/9/1 248/10/1
f 249/6/1 250/4/1 251/9/1 252/10/1
f 253/6/1 254/4/1 255/9/1 256/10/1
f 257/6/1 258/4/1 259/9/1 260/10/1
f 261/6/1 262/4/1 263/9/1 264/10/1
f 265/6/1 266/4/1 267/9/1 268/10/1
f 269/6/1 270/4/1 271/9/1 272/10/1
f 273/6/1 274/4/1 275/9/1 276/10/1
f 277/5/1 278/1/1 279/4/1 280/6/1
f 281/5/1 282/1/1 283/4/1 284/6/1
f 285/5/1 286/1/1 287/4/1 288/6/1
f 289/5/1 290/1/1 291/4/1 292/6/1
f 293/5/1 294/1/1 295/4/1 296/6/1
f 297/5/1 298/1/1 299/4/1 300/6/1
f 301/5/1 302/1/1 303/4/1 304/6/1
f 305/5/1 306/1/1 307/4/1 308/6/1
f 309/5/1 310/1/1 311/4/1 312/6/1
f 313/5/1 314/1/1 315/4/1 316/6/1
f 317/5/1 318/1/1 319/4/1 320/6/1
f 321/5/1 322/1/1 323/4/1 324/6/1
f 325/5/1 326/1/1 327/4/1 328/6/1
f 329/5/1 330/1/1 331/4/1 332/6/1
f 333/5/1 334/1/1 335/4/1 336/6/1
f 337/5/1 338/1/1 339/4/1 340/6/1
f 341/5/1 342/1/1 343/4/1 344/6/1
f 345/5/1 346/1/1 347/4/1 348/6/1
f 349/5/1 350/1/1 351/4/1 352/6/1
f 353/5/1 354/1/1 355/4/1 356/6/1
f 357/5/1 358/1/1 359/4/1 360/6/1
f 361/5/1 362/1/1 363/4/1 364/6/1
f 365/5/1 366/1/1 367/4/1 368/6/1
f 369/5/1 370/1/1 371/4/1 372/6/1
f 373/5/1 374/1/1 375/4/1 376/6/1
f 377/5/1 378/1/1 379/4/1 380/6/1
f 381/5/1 382/1/1 383/4/1 384/6/1
f 385/5/1 386/1/1 387/4/1 388/6/1
f 389/5/1 390/1/1 391/4/1 392/6/1
f 393/5/1 394/1/1 395/4/1 396/6/1
f 397/5/1 398/1/1 399/4/1 400/6/1
f 401/5/1 402/1/1 403/4/1 404/6/1
f 405/5/1 406/1/1 407/4/1 408/6/1
f 409/5/1 410/1/1 411/4/1 412/6/1
f 413/5/1 414/1/1 415/4/1 416/6/1
f 417/5/1 418/1/1 419/4/1 420/6/1
f 421/5/1 422/1/1 423/4/1 424/6/1
f 425/5/1 426/1/1 427/4/1 428/6/1
f 429/5/1 430/1/1 431/4/1 432/6/1
f 433/5/1 434/1/1 435/4/1 436/6/1
f 437/5/1 438/1/1 439/4/1 440/6/1
f 441/5/1 442/1/1 443/4/1 444/6/1
f 445/5/1 446/1/1 447/4/1 448/6/1
f 449/5/1 450/1/1 451/4/1 452/6/1
f 453/5/1 454/1/1 455/4/1 456/6/1
f 457/5/1 458/1/1 459/4/1 460/6/1
f 461/5/1 462/1/1 463/4/1 464/6/1
f 465/5/1 466/1/1 467/4/1 468/6/1
f 469/5/1 470/1/1 471/4/1 472/6/1
f 473/5/1 474/1/1 475/4/1 476/6/1
f 477/11/1 478/12/1 479/1/1 480/5/1
f 481/11/1 482/12/1 483/1/1 484/5/1
f 485/11/1 486/12/1 487/1/1 488/5/1
f 489/11/1 490/12/1 491/1/1 492/5/1
f 493/11/1 494/12/1 495/1/1 496/5/1
f 497/11/1 498/12/1 499/1/1 500/5/1
f 501/11/1 502/12/1 503/1/1 504/5/1
f 505/5/1 506/1/1 507/4/1 508/6/1
f 509/5/1 510/1/1 511/4/1 512/6/1
f 513/5/1 514/1/1 515/4/1 516/6/1
f 517/5/1 518/1/1 519/4/1 520/6/1
f 521/11/1 522/12/1 523/1/1 524/5/1
f 525/11/1 526/12/1 527/1/1 528/5/1
f 529/11/1 530/12/1 531/1/1 532/5/1
f 533/11/1 534/12/1 535/1/1 536/5/1
f 537/11/1 538/12/1 539/1/1 540/5/1
f 541/11/1 542/12/1 543/1/1 544/5/1
f 545/11/1 546/12/1 547/1/1 548/5/1
f 549/11/1 550/12/1 551/1/1 552/5/1
f 553/11/1 554/12/1 555/1/1 556/5/1
f 557/11/1 558/12/1 559/1/1 560/5/1
f 561/11/1 562/12/1 563/1/1 564/5/1
f 565/11/1 566/12/1 567/1/1 568/5/1
f 569/11/1 570/12/1 571/1/1 572/5/1
f 573/11/1 574/12/1 575/1/1 576/5/1
f 577/1/1 578/2/1 579/3/1 580/4/1
f 581/5/1 582/1/1 583/4/1 584/6/1
f 585/5/1 586/1/1 587/4/1 588/6/1
f 589/7/1 590/5/1 591/6/1 592/8/1
f 593/1/1 594/2/1 595/3/1 596/4/1
f 597/5/1 598/1/1 599/4/1 600/6/1
f 601/5/1 602/1/1 603/4/1 604/6/1
f 605/7/1 606/5/1 607/6/1 608/8/1
f 609/1/1 610/2/1 611/3/1 612/4/1
f 613/5/1 614/1/1 615/4/1 616/6/1
f 617/5/1 618/1/1 619/4/1 620/6/1
f 621/7/1 622/5/1 623/6/1 624/8/1
f 625/1/1 626/2/1 627/3/1 628/4/1
f 629/5/1 630/1/1 631/4/1 632/6/1
f 633/5/1 634/1/1 635/4/1 636/6/1
f 637/7/1 638/5/1 639/6/1 640/8/1
f 641/1/1 642/2/1 643/3/1 644/4/1
f 645/5/1 646/1/1 647/4/1 648/6/1
f 649/5/1 650/1/1 651/4/1 652/6/1
f 653/7/1 654/5/1 655/6/1 656/8/1
f 657/1/1 658/2/1 659/3/1 660/4/1
f 661/5/1 662/1/1 663/4/1 664/6/1
f 665/5/1 666/1/1 667/4/1 668/6/1
f 669/7/1 670/5/1 671/6/1 672/8/1
f 673/1/1 674/2/1 675/3/1 676/4/1
f 677/5/1 678/1/1 679/4/1 680/6/1
f 681/5/1 682/1/1 683/4/1 684/6/1
f 685/7/1 686/5/1 687/6/1 688/8/1
f 689/1/1 690/2/1 691/3/1 692/4/1
f 693/5/1 694/1/1 695/4/1 696/6/1
f 697/5/1 698/1/1 699/4/1 700/6/1
f 701/7/1 702/5/1 703/6/1 704/8/1
f 705/1/1 706/2/1 707/3/1 708/4/1
f 709/5/1 710/1/1 711/4/1 712/6/1
f 713/5/1 714/1/1 715/4/1 716/6/1
f 717/7/1 718/5/1 719/6/1 720/8/1
f 721/1/1 722/2/1 723/3/1 724/4/1
f 725/5/1 726/1/1 727/4/1 728/6/1
f 729/5/1 730/1/1 731/4/1 732/6/1
f 733/7/1 734/5/1 735/6/1 736/8/1

