# Tiled2Unity generated file. Do not modify by hand.
# Wavefront file for 'overworld_mesh_0004.obj'

# Vertices (Count = 708)
v -48 -2 0
v -50 -2 0
v -50 0 0
v -48 0 0
v -46 -2 0
v -48 -2 0
v -48 0 0
v -46 0 0
v -44 -2 0
v -46 -2 0
v -46 0 0
v -44 0 0
v -16 -2 0
v -18 -2 0
v -18 0 0
v -16 0 0
v -14 -2 0
v -16 -2 0
v -16 0 0
v -14 0 0
v -12 -2 0
v -14 -2 0
v -14 0 0
v -12 0 0
v -48 -4 0
v -50 -4 0
v -50 -2 0
v -48 -2 0
v -46 -4 0
v -48 -4 0
v -48 -2 0
v -46 -2 0
v -44 -4 0
v -46 -4 0
v -46 -2 0
v -44 -2 0
v -40 -4 0
v -42 -4 0
v -42 -2 0
v -40 -2 0
v -16 -4 0
v -18 -4 0
v -18 -2 0
v -16 -2 0
v -14 -4 0
v -16 -4 0
v -16 -2 0
v -14 -2 0
v -12 -4 0
v -14 -4 0
v -14 -2 0
v -12 -2 0
v -6 -4 0
v -8 -4 0
v -8 -2 0
v -6 -2 0
v -48 -6 0
v -50 -6 0
v -50 -4 0
v -48 -4 0
v -46 -6 0
v -48 -6 0
v -48 -4 0
v -46 -4 0
v -44 -6 0
v -46 -6 0
v -46 -4 0
v -44 -4 0
v -34 -6 0
v -36 -6 0
v -36 -4 0
v -34 -4 0
v -32 -6 0
v -34 -6 0
v -34 -4 0
v -32 -4 0
v -30 -6 0
v -32 -6 0
v -32 -4 0
v -30 -4 0
v -16 -6 0
v -18 -6 0
v -18 -4 0
v -16 -4 0
v -14 -6 0
v -16 -6 0
v -16 -4 0
v -14 -4 0
v -12 -6 0
v -14 -6 0
v -14 -4 0
v -12 -4 0
v -4 -6 0
v -6 -6 0
v -6 -4 0
v -4 -4 0
v -2 -6 0
v -4 -6 0
v -4 -4 0
v -2 -4 0
v -48 -8 0
v -50 -8 0
v -50 -6 0
v -48 -6 0
v -46 -8 0
v -48 -8 0
v -48 -6 0
v -46 -6 0
v -44 -8 0
v -46 -8 0
v -46 -6 0
v -44 -6 0
v -34 -8 0
v -36 -8 0
v -36 -6 0
v -34 -6 0
v -32 -8 0
v -34 -8 0
v -34 -6 0
v -32 -6 0
v -30 -8 0
v -32 -8 0
v -32 -6 0
v -30 -6 0
v -16 -8 0
v -18 -8 0
v -18 -6 0
v -16 -6 0
v -14 -8 0
v -16 -8 0
v -16 -6 0
v -14 -6 0
v -12 -8 0
v -14 -8 0
v -14 -6 0
v -12 -6 0
v -10 -8 0
v -12 -8 0
v -12 -6 0
v -10 -6 0
v -4 -8 0
v -6 -8 0
v -6 -6 0
v -4 -6 0
v -2 -8 0
v -4 -8 0
v -4 -6 0
v -2 -6 0
v -42 -10 0
v -44 -10 0
v -44 -8 0
v -42 -8 0
v -40 -10 0
v -42 -10 0
v -42 -8 0
v -40 -8 0
v -38 -10 0
v -40 -10 0
v -40 -8 0
v -38 -8 0
v -36 -10 0
v -38 -10 0
v -38 -8 0
v -36 -8 0
v -34 -10 0
v -36 -10 0
v -36 -8 0
v -34 -8 0
v -32 -10 0
v -34 -10 0
v -34 -8 0
v -32 -8 0
v -30 -10 0
v -32 -10 0
v -32 -8 0
v -30 -8 0
v -16 -10 0
v -18 -10 0
v -18 -8 0
v -16 -8 0
v -40 -12 0
v -42 -12 0
v -42 -10 0
v -40 -10 0
v -38 -12 0
v -40 -12 0
v -40 -10 0
v -38 -10 0
v -36 -12 0
v -38 -12 0
v -38 -10 0
v -36 -10 0
v -34 -12 0
v -36 -12 0
v -36 -10 0
v -34 -10 0
v -32 -12 0
v -34 -12 0
v -34 -10 0
v -32 -10 0
v -30 -12 0
v -32 -12 0
v -32 -10 0
v -30 -10 0
v -12 -12 0
v -14 -12 0
v -14 -10 0
v -12 -10 0
v -10 -12 0
v -12 -12 0
v -12 -10 0
v -10 -10 0
v -40 -14 0
v -42 -14 0
v -42 -12 0
v -40 -12 0
v -38 -14 0
v -40 -14 0
v -40 -12 0
v -38 -12 0
v -36 -14 0
v -38 -14 0
v -38 -12 0
v -36 -12 0
v -18 -14 0
v -20 -14 0
v -20 -12 0
v -18 -12 0
v -16 -14 0
v -18 -14 0
v -18 -12 0
v -16 -12 0
v -14 -14 0
v -16 -14 0
v -16 -12 0
v -14 -12 0
v -12 -14 0
v -14 -14 0
v -14 -12 0
v -12 -12 0
v -10 -14 0
v -12 -14 0
v -12 -12 0
v -10 -12 0
v -4 -14 0
v -6 -14 0
v -6 -12 0
v -4 -12 0
v -2 -14 0
v -4 -14 0
v -4 -12 0
v -2 -12 0
v 0 -14 0
v -2 -14 0
v -2 -12 0
v 0 -12 0
v -46 -16 0
v -48 -16 0
v -48 -14 0
v -46 -14 0
v -44 -16 0
v -46 -16 0
v -46 -14 0
v -44 -14 0
v -42 -16 0
v -44 -16 0
v -44 -14 0
v -42 -14 0
v -38 -16 0
v -40 -16 0
v -40 -14 0
v -38 -14 0
v -36 -16 0
v -38 -16 0
v -38 -14 0
v -36 -14 0
v -28 -16 0
v -30 -16 0
v -30 -14 0
v -28 -14 0
v -18 -16 0
v -20 -16 0
v -20 -14 0
v -18 -14 0
v -16 -16 0
v -18 -16 0
v -18 -14 0
v -16 -14 0
v -14 -16 0
v -16 -16 0
v -16 -14 0
v -14 -14 0
v -4 -16 0
v -6 -16 0
v -6 -14 0
v -4 -14 0
v -2 -16 0
v -4 -16 0
v -4 -14 0
v -2 -14 0
v 0 -16 0
v -2 -16 0
v -2 -14 0
v 0 -14 0
v -46 -18 0
v -48 -18 0
v -48 -16 0
v -46 -16 0
v -44 -18 0
v -46 -18 0
v -46 -16 0
v -44 -16 0
v -42 -18 0
v -44 -18 0
v -44 -16 0
v -42 -16 0
v -38 -18 0
v -40 -18 0
v -40 -16 0
v -38 -16 0
v -36 -18 0
v -38 -18 0
v -38 -16 0
v -36 -16 0
v -34 -18 0
v -36 -18 0
v -36 -16 0
v -34 -16 0
v -18 -18 0
v -20 -18 0
v -20 -16 0
v -18 -16 0
v -16 -18 0
v -18 -18 0
v -18 -16 0
v -16 -16 0
v -14 -18 0
v -16 -18 0
v -16 -16 0
v -14 -16 0
v -10 -18 0
v -12 -18 0
v -12 -16 0
v -10 -16 0
v -4 -18 0
v -6 -18 0
v -6 -16 0
v -4 -16 0
v -2 -18 0
v -4 -18 0
v -4 -16 0
v -2 -16 0
v 0 -18 0
v -2 -18 0
v -2 -16 0
v 0 -16 0
v -46 -20 0
v -48 -20 0
v -48 -18 0
v -46 -18 0
v -44 -20 0
v -46 -20 0
v -46 -18 0
v -44 -18 0
v -42 -20 0
v -44 -20 0
v -44 -18 0
v -42 -18 0
v -30 -20 0
v -32 -20 0
v -32 -18 0
v -30 -18 0
v -18 -20 0
v -20 -20 0
v -20 -18 0
v -18 -18 0
v -16 -20 0
v -18 -20 0
v -18 -18 0
v -16 -18 0
v -14 -20 0
v -16 -20 0
v -16 -18 0
v -14 -18 0
v -10 -20 0
v -12 -20 0
v -12 -18 0
v -10 -18 0
v -4 -20 0
v -6 -20 0
v -6 -18 0
v -4 -18 0
v -2 -20 0
v -4 -20 0
v -4 -18 0
v -2 -18 0
v 0 -20 0
v -2 -20 0
v -2 -18 0
v 0 -18 0
v -48 -22 0
v -50 -22 0
v -50 -20 0
v -48 -20 0
v -46 -22 0
v -48 -22 0
v -48 -20 0
v -46 -20 0
v -44 -22 0
v -46 -22 0
v -46 -20 0
v -44 -20 0
v -42 -22 0
v -44 -22 0
v -44 -20 0
v -42 -20 0
v -12 -32 0
v -14 -32 0
v -14 -30 0
v -12 -30 0
v -6 -32 0
v -8 -32 0
v -8 -30 0
v -6 -30 0
v -4 -32 0
v -6 -32 0
v -6 -30 0
v -4 -30 0
v -2 -32 0
v -4 -32 0
v -4 -30 0
v -2 -30 0
v -46 -34 0
v -48 -34 0
v -48 -32 0
v -46 -32 0
v -44 -34 0
v -46 -34 0
v -46 -32 0
v -44 -32 0
v -42 -34 0
v -44 -34 0
v -44 -32 0
v -42 -32 0
v -40 -34 0
v -42 -34 0
v -42 -32 0
v -40 -32 0
v -24 -34 0
v -26 -34 0
v -26 -32 0
v -24 -32 0
v -22 -34 0
v -24 -34 0
v -24 -32 0
v -22 -32 0
v -14 -34 0
v -16 -34 0
v -16 -32 0
v -14 -32 0
v -12 -34 0
v -14 -34 0
v -14 -32 0
v -12 -32 0
v -8 -34 0
v -10 -34 0
v -10 -32 0
v -8 -32 0
v -6 -34 0
v -8 -34 0
v -8 -32 0
v -6 -32 0
v -4 -34 0
v -6 -34 0
v -6 -32 0
v -4 -32 0
v -2 -34 0
v -4 -34 0
v -4 -32 0
v -2 -32 0
v -46 -36 0
v -48 -36 0
v -48 -34 0
v -46 -34 0
v -44 -36 0
v -46 -36 0
v -46 -34 0
v -44 -34 0
v -42 -36 0
v -44 -36 0
v -44 -34 0
v -42 -34 0
v -24 -36 0
v -26 -36 0
v -26 -34 0
v -24 -34 0
v -22 -36 0
v -24 -36 0
v -24 -34 0
v -22 -34 0
v -14 -36 0
v -16 -36 0
v -16 -34 0
v -14 -34 0
v -12 -36 0
v -14 -36 0
v -14 -34 0
v -12 -34 0
v -6 -36 0
v -8 -36 0
v -8 -34 0
v -6 -34 0
v -4 -36 0
v -6 -36 0
v -6 -34 0
v -4 -34 0
v -2 -36 0
v -4 -36 0
v -4 -34 0
v -2 -34 0
v -46 -38 0
v -48 -38 0
v -48 -36 0
v -46 -36 0
v -44 -38 0
v -46 -38 0
v -46 -36 0
v -44 -36 0
v -42 -38 0
v -44 -38 0
v -44 -36 0
v -42 -36 0
v -8 -38 0
v -10 -38 0
v -10 -36 0
v -8 -36 0
v -6 -38 0
v -8 -38 0
v -8 -36 0
v -6 -36 0
v -4 -38 0
v -6 -38 0
v -6 -36 0
v -4 -36 0
v -2 -38 0
v -4 -38 0
v -4 -36 0
v -2 -36 0
v -46 -40 0
v -48 -40 0
v -48 -38 0
v -46 -38 0
v -44 -40 0
v -46 -40 0
v -46 -38 0
v -44 -38 0
v -42 -40 0
v -44 -40 0
v -44 -38 0
v -42 -38 0
v -24 -40 0
v -26 -40 0
v -26 -38 0
v -24 -38 0
v -22 -40 0
v -24 -40 0
v -24 -38 0
v -22 -38 0
v -18 -40 0
v -20 -40 0
v -20 -38 0
v -18 -38 0
v -48 -42 0
v -50 -42 0
v -50 -40 0
v -48 -40 0
v -40 -42 0
v -42 -42 0
v -42 -40 0
v -40 -40 0
v -38 -42 0
v -40 -42 0
v -40 -40 0
v -38 -40 0
v -36 -42 0
v -38 -42 0
v -38 -40 0
v -36 -40 0
v -24 -42 0
v -26 -42 0
v -26 -40 0
v -24 -40 0
v -22 -42 0
v -24 -42 0
v -24 -40 0
v -22 -40 0
v -18 -42 0
v -20 -42 0
v -20 -40 0
v -18 -40 0
v -16 -42 0
v -18 -42 0
v -18 -40 0
v -16 -40 0
v -14 -42 0
v -16 -42 0
v -16 -40 0
v -14 -40 0
v -10 -42 0
v -12 -42 0
v -12 -40 0
v -10 -40 0
v -42 -44 0
v -44 -44 0
v -44 -42 0
v -42 -42 0
v -40 -44 0
v -42 -44 0
v -42 -42 0
v -40 -42 0
v -38 -44 0
v -40 -44 0
v -40 -42 0
v -38 -42 0
v -36 -44 0
v -38 -44 0
v -38 -42 0
v -36 -42 0
v -18 -44 0
v -20 -44 0
v -20 -42 0
v -18 -42 0
v -16 -44 0
v -18 -44 0
v -18 -42 0
v -16 -42 0
v -14 -44 0
v -16 -44 0
v -16 -42 0
v -14 -42 0
v -40 -46 0
v -42 -46 0
v -42 -44 0
v -40 -44 0
v -38 -46 0
v -40 -46 0
v -40 -44 0
v -38 -44 0
v -36 -46 0
v -38 -46 0
v -38 -44 0
v -36 -44 0
v -18 -46 0
v -20 -46 0
v -20 -44 0
v -18 -44 0
v -16 -46 0
v -18 -46 0
v -18 -44 0
v -16 -44 0
v -14 -46 0
v -16 -46 0
v -16 -44 0
v -14 -44 0
v -4 -46 0
v -6 -46 0
v -6 -44 0
v -4 -44 0
v -2 -46 0
v -4 -46 0
v -4 -44 0
v -2 -44 0
v -40 -48 0
v -42 -48 0
v -42 -46 0
v -40 -46 0
v -38 -48 0
v -40 -48 0
v -40 -46 0
v -38 -46 0
v -36 -48 0
v -38 -48 0
v -38 -46 0
v -36 -46 0
v -18 -48 0
v -20 -48 0
v -20 -46 0
v -18 -46 0
v -16 -48 0
v -18 -48 0
v -18 -46 0
v -16 -46 0
v -14 -48 0
v -16 -48 0
v -16 -46 0
v -14 -46 0
v -4 -48 0
v -6 -48 0
v -6 -46 0
v -4 -46 0
v -2 -48 0
v -4 -48 0
v -4 -46 0
v -2 -46 0
v -26 -50 0
v -28 -50 0
v -28 -48 0
v -26 -48 0

# Texture cooridinates (Count = 66)
vt 0.96875 0.09375
vt 1 0.09375
vt 1 0.125
vt 0.96875 0.125
vt 0.9375 0.09375
vt 0.9375 0.125
vt 0.90625 0.09375
vt 0.90625 0.125
vt 0.96875 0.0625
vt 1 0.0625
vt 0.9375 0.0625
vt 0.90625 0.0625
vt 0.8125 0
vt 0.84375 0
vt 0.84375 0.03125
vt 0.8125 0.03125
vt 0.96875 0.03125
vt 1 0.03125
vt 0.9375 0.03125
vt 0.90625 0.03125
vt 0.40625 0.59375
vt 0.4375 0.59375
vt 0.4375 0.625
vt 0.40625 0.625
vt 0.375 0.59375
vt 0.375 0.625
vt 0.96875 0
vt 1 0
vt 0.9375 0
vt 0.90625 0
vt 0.71875 0.40625
vt 0.75 0.40625
vt 0.75 0.4375
vt 0.71875 0.4375
vt 0.40625 0.5625
vt 0.4375 0.5625
vt 0.375 0.5625
vt 0.84375 0.09375
vt 0.875 0.09375
vt 0.875 0.125
vt 0.84375 0.125
vt 0.90625 0.59375
vt 0.9375 0.59375
vt 0.9375 0.625
vt 0.90625 0.625
vt 0.875 0.59375
vt 0.875 0.625
vt 0.84375 0.59375
vt 0.84375 0.625
vt 0.90625 0.5625
vt 0.9375 0.5625
vt 0.875 0.5625
vt 0.84375 0.5625
vt 0.90625 0.53125
vt 0.9375 0.53125
vt 0.875 0.53125
vt 0.84375 0.53125
vt 0.59375 0.59375
vt 0.625 0.59375
vt 0.625 0.625
vt 0.59375 0.625
vt 0.5625 0.59375
vt 0.5625 0.625
vt 0.59375 0.5625
vt 0.625 0.5625
vt 0.5625 0.5625

# Normal
vn 0 0 -1

# Mesh description
g overworld_mesh_0004

# Faces
f 1/1/1 2/2/1 3/3/1 4/4/1
f 5/5/1 6/1/1 7/4/1 8/6/1
f 9/7/1 10/5/1 11/6/1 12/8/1
f 13/1/1 14/2/1 15/3/1 16/4/1
f 17/5/1 18/1/1 19/4/1 20/6/1
f 21/7/1 22/5/1 23/6/1 24/8/1
f 25/9/1 26/10/1 27/2/1 28/1/1
f 29/11/1 30/9/1 31/1/1 32/5/1
f 33/12/1 34/11/1 35/5/1 36/7/1
f 37/13/1 38/14/1 39/15/1 40/16/1
f 41/9/1 42/10/1 43/2/1 44/1/1
f 45/11/1 46/9/1 47/1/1 48/5/1
f 49/12/1 50/11/1 51/5/1 52/7/1
f 53/13/1 54/14/1 55/15/1 56/16/1
f 57/17/1 58/18/1 59/10/1 60/9/1
f 61/19/1 62/17/1 63/9/1 64/11/1
f 65/20/1 66/19/1 67/11/1 68/12/1
f 69/1/1 70/2/1 71/3/1 72/4/1
f 73/5/1 74/1/1 75/4/1 76/6/1
f 77/7/1 78/5/1 79/6/1 80/8/1
f 81/17/1 82/18/1 83/10/1 84/9/1
f 85/19/1 86/17/1 87/9/1 88/11/1
f 89/20/1 90/19/1 91/11/1 92/12/1
f 93/21/1 94/22/1 95/23/1 96/24/1
f 97/25/1 98/21/1 99/24/1 100/26/1
f 101/27/1 102/28/1 103/18/1 104/17/1
f 105/29/1 106/27/1 107/17/1 108/19/1
f 109/30/1 110/29/1 111/19/1 112/20/1
f 113/9/1 114/10/1 115/2/1 116/1/1
f 117/11/1 118/9/1 119/1/1 120/5/1
f 121/12/1 122/11/1 123/5/1 124/7/1
f 125/27/1 126/28/1 127/18/1 128/17/1
f 129/29/1 130/27/1 131/17/1 132/19/1
f 133/30/1 134/29/1 135/19/1 136/20/1
f 137/31/1 138/32/1 139/33/1 140/34/1
f 141/35/1 142/36/1 143/22/1 144/21/1
f 145/37/1 146/35/1 147/21/1 148/25/1
f 149/38/1 150/39/1 151/40/1 152/41/1
f 153/42/1 154/43/1 155/44/1 156/45/1
f 157/46/1 158/42/1 159/45/1 160/47/1
f 161/48/1 162/46/1 163/47/1 164/49/1
f 165/17/1 166/18/1 167/10/1 168/9/1
f 169/19/1 170/17/1 171/9/1 172/11/1
f 173/20/1 174/19/1 175/11/1 176/12/1
f 177/13/1 178/14/1 179/15/1 180/16/1
f 181/50/1 182/51/1 183/43/1 184/42/1
f 185/52/1 186/50/1 187/42/1 188/46/1
f 189/53/1 190/52/1 191/46/1 192/48/1
f 193/27/1 194/28/1 195/18/1 196/17/1
f 197/29/1 198/27/1 199/17/1 200/19/1
f 201/30/1 202/29/1 203/19/1 204/20/1
f 205/21/1 206/22/1 207/23/1 208/24/1
f 209/25/1 210/21/1 211/24/1 212/26/1
f 213/54/1 214/55/1 215/51/1 216/50/1
f 217/56/1 218/54/1 219/50/1 220/52/1
f 221/57/1 222/56/1 223/52/1 224/53/1
f 225/1/1 226/2/1 227/3/1 228/4/1
f 229/5/1 230/1/1 231/4/1 232/6/1
f 233/7/1 234/5/1 235/6/1 236/8/1
f 237/35/1 238/36/1 239/22/1 240/21/1
f 241/37/1 242/35/1 243/21/1 244/25/1
f 245/1/1 246/2/1 247/3/1 248/4/1
f 249/5/1 250/1/1 251/4/1 252/6/1
f 253/7/1 254/5/1 255/6/1 256/8/1
f 257/1/1 258/2/1 259/3/1 260/4/1
f 261/5/1 262/1/1 263/4/1 264/6/1
f 265/7/1 266/5/1 267/6/1 268/8/1
f 269/21/1 270/22/1 271/23/1 272/24/1
f 273/25/1 274/21/1 275/24/1 276/26/1
f 277/38/1 278/39/1 279/40/1 280/41/1
f 281/9/1 282/10/1 283/2/1 284/1/1
f 285/11/1 286/9/1 287/1/1 288/5/1
f 289/12/1 290/11/1 291/5/1 292/7/1
f 293/9/1 294/10/1 295/2/1 296/1/1
f 297/11/1 298/9/1 299/1/1 300/5/1
f 301/12/1 302/11/1 303/5/1 304/7/1
f 305/9/1 306/10/1 307/2/1 308/1/1
f 309/11/1 310/9/1 311/1/1 312/5/1
f 313/12/1 314/11/1 315/5/1 316/7/1
f 317/35/1 318/36/1 319/22/1 320/21/1
f 321/37/1 322/35/1 323/21/1 324/25/1
f 325/31/1 326/32/1 327/33/1 328/34/1
f 329/17/1 330/18/1 331/10/1 332/9/1
f 333/19/1 334/17/1 335/9/1 336/11/1
f 337/20/1 338/19/1 339/11/1 340/12/1
f 341/38/1 342/39/1 343/40/1 344/41/1
f 345/17/1 346/18/1 347/10/1 348/9/1
f 349/19/1 350/17/1 351/9/1 352/11/1
f 353/20/1 354/19/1 355/11/1 356/12/1
f 357/17/1 358/18/1 359/10/1 360/9/1
f 361/19/1 362/17/1 363/9/1 364/11/1
f 365/20/1 366/19/1 367/11/1 368/12/1
f 369/13/1 370/14/1 371/15/1 372/16/1
f 373/27/1 374/28/1 375/18/1 376/17/1
f 377/29/1 378/27/1 379/17/1 380/19/1
f 381/30/1 382/29/1 383/19/1 384/20/1
f 385/31/1 386/32/1 387/33/1 388/34/1
f 389/27/1 390/28/1 391/18/1 392/17/1
f 393/29/1 394/27/1 395/17/1 396/19/1
f 397/30/1 398/29/1 399/19/1 400/20/1
f 401/31/1 402/32/1 403/33/1 404/34/1
f 405/27/1 406/28/1 407/18/1 408/17/1
f 409/29/1 410/27/1 411/17/1 412/19/1
f 413/30/1 414/29/1 415/19/1 416/20/1
f 417/13/1 418/14/1 419/15/1 420/16/1
f 421/1/1 422/2/1 423/3/1 424/4/1
f 425/5/1 426/1/1 427/4/1 428/6/1
f 429/7/1 430/5/1 431/6/1 432/8/1
f 433/1/1 434/2/1 435/3/1 436/4/1
f 437/5/1 438/1/1 439/4/1 440/6/1
f 441/7/1 442/5/1 443/6/1 444/8/1
f 445/38/1 446/39/1 447/40/1 448/41/1
f 449/58/1 450/59/1 451/60/1 452/61/1
f 453/62/1 454/58/1 455/61/1 456/63/1
f 457/21/1 458/22/1 459/23/1 460/24/1
f 461/25/1 462/21/1 463/24/1 464/26/1
f 465/31/1 466/32/1 467/33/1 468/34/1
f 469/9/1 470/10/1 471/2/1 472/1/1
f 473/11/1 474/9/1 475/1/1 476/5/1
f 477/12/1 478/11/1 479/5/1 480/7/1
f 481/9/1 482/10/1 483/2/1 484/1/1
f 485/11/1 486/9/1 487/1/1 488/5/1
f 489/12/1 490/11/1 491/5/1 492/7/1
f 493/64/1 494/65/1 495/59/1 496/58/1
f 497/66/1 498/64/1 499/58/1 500/62/1
f 501/35/1 502/36/1 503/22/1 504/21/1
f 505/37/1 506/35/1 507/21/1 508/25/1
f 509/17/1 510/18/1 511/10/1 512/9/1
f 513/19/1 514/17/1 515/9/1 516/11/1
f 517/20/1 518/19/1 519/11/1 520/12/1
f 521/17/1 522/18/1 523/10/1 524/9/1
f 525/19/1 526/17/1 527/9/1 528/11/1
f 529/20/1 530/19/1 531/11/1 532/12/1
f 533/38/1 534/39/1 535/40/1 536/41/1
f 537/27/1 538/28/1 539/18/1 540/17/1
f 541/29/1 542/27/1 543/17/1 544/19/1
f 545/30/1 546/29/1 547/19/1 548/20/1
f 549/27/1 550/28/1 551/18/1 552/17/1
f 553/29/1 554/27/1 555/17/1 556/19/1
f 557/30/1 558/29/1 559/19/1 560/20/1
f 561/21/1 562/22/1 563/23/1 564/24/1
f 565/25/1 566/21/1 567/24/1 568/26/1
f 569/31/1 570/32/1 571/33/1 572/34/1
f 573/13/1 574/14/1 575/15/1 576/16/1
f 577/1/1 578/2/1 579/3/1 580/4/1
f 581/5/1 582/1/1 583/4/1 584/6/1
f 585/7/1 586/5/1 587/6/1 588/8/1
f 589/35/1 590/36/1 591/22/1 592/21/1
f 593/37/1 594/35/1 595/21/1 596/25/1
f 597/1/1 598/2/1 599/3/1 600/4/1
f 601/5/1 602/1/1 603/4/1 604/6/1
f 605/7/1 606/5/1 607/6/1 608/8/1
f 609/38/1 610/39/1 611/40/1 612/41/1
f 613/31/1 614/32/1 615/33/1 616/34/1
f 617/9/1 618/10/1 619/2/1 620/1/1
f 621/11/1 622/9/1 623/1/1 624/5/1
f 625/12/1 626/11/1 627/5/1 628/7/1
f 629/9/1 630/10/1 631/2/1 632/1/1
f 633/11/1 634/9/1 635/1/1 636/5/1
f 637/12/1 638/11/1 639/5/1 640/7/1
f 641/17/1 642/18/1 643/10/1 644/9/1
f 645/19/1 646/17/1 647/9/1 648/11/1
f 649/20/1 650/19/1 651/11/1 652/12/1
f 653/17/1 654/18/1 655/10/1 656/9/1
f 657/19/1 658/17/1 659/9/1 660/11/1
f 661/20/1 662/19/1 663/11/1 664/12/1
f 665/21/1 666/22/1 667/23/1 668/24/1
f 669/25/1 670/21/1 671/24/1 672/26/1
f 673/27/1 674/28/1 675/18/1 676/17/1
f 677/29/1 678/27/1 679/17/1 680/19/1
f 681/30/1 682/29/1 683/19/1 684/20/1
f 685/27/1 686/28/1 687/18/1 688/17/1
f 689/29/1 690/27/1 691/17/1 692/19/1
f 693/30/1 694/29/1 695/19/1 696/20/1
f 697/35/1 698/36/1 699/22/1 700/21/1
f 701/37/1 702/35/1 703/21/1 704/25/1
f 705/13/1 706/14/1 707/15/1 708/16/1

