# Tiled2Unity generated file. Do not modify by hand.
# Wavefront file for 'OverworldTest_mesh_0002.obj'

# Vertices (Count = 680)
v -24 -1 0
v -25 -1 0
v -25 0 0
v -24 0 0
v -23 -1 0
v -24 -1 0
v -24 0 0
v -23 0 0
v -22 -1 0
v -23 -1 0
v -23 0 0
v -22 0 0
v -21 -1 0
v -22 -1 0
v -22 0 0
v -21 0 0
v -20 -1 0
v -21 -1 0
v -21 0 0
v -20 0 0
v -19 -1 0
v -20 -1 0
v -20 0 0
v -19 0 0
v -18 -1 0
v -19 -1 0
v -19 0 0
v -18 0 0
v -17 -1 0
v -18 -1 0
v -18 0 0
v -17 0 0
v -16 -1 0
v -17 -1 0
v -17 0 0
v -16 0 0
v -15 -1 0
v -16 -1 0
v -16 0 0
v -15 0 0
v -14 -1 0
v -15 -1 0
v -15 0 0
v -14 0 0
v -10 -1 0
v -11 -1 0
v -11 0 0
v -10 0 0
v -9 -1 0
v -10 -1 0
v -10 0 0
v -9 0 0
v -8 -1 0
v -9 -1 0
v -9 0 0
v -8 0 0
v -7 -1 0
v -8 -1 0
v -8 0 0
v -7 0 0
v -6 -1 0
v -7 -1 0
v -7 0 0
v -6 0 0
v -5 -1 0
v -6 -1 0
v -6 0 0
v -5 0 0
v -4 -1 0
v -5 -1 0
v -5 0 0
v -4 0 0
v -3 -1 0
v -4 -1 0
v -4 0 0
v -3 0 0
v -2 -1 0
v -3 -1 0
v -3 0 0
v -2 0 0
v -1 -1 0
v -2 -1 0
v -2 0 0
v -1 0 0
v 0 -1 0
v -1 -1 0
v -1 0 0
v 0 0 0
v -24 -2 0
v -25 -2 0
v -25 -1 0
v -24 -1 0
v 0 -2 0
v -1 -2 0
v -1 -1 0
v 0 -1 0
v -24 -3 0
v -25 -3 0
v -25 -2 0
v -24 -2 0
v -5 -3 0
v -6 -3 0
v -6 -2 0
v -5 -2 0
v -4 -3 0
v -5 -3 0
v -5 -2 0
v -4 -2 0
v -3 -3 0
v -4 -3 0
v -4 -2 0
v -3 -2 0
v -2 -3 0
v -3 -3 0
v -3 -2 0
v -2 -2 0
v -1 -3 0
v -2 -3 0
v -2 -2 0
v -1 -2 0
v 0 -3 0
v -1 -3 0
v -1 -2 0
v 0 -2 0
v -24 -4 0
v -25 -4 0
v -25 -3 0
v -24 -3 0
v -16 -4 0
v -17 -4 0
v -17 -3 0
v -16 -3 0
v -5 -4 0
v -6 -4 0
v -6 -3 0
v -5 -3 0
v -4 -4 0
v -5 -4 0
v -5 -3 0
v -4 -3 0
v -3 -4 0
v -4 -4 0
v -4 -3 0
v -3 -3 0
v -2 -4 0
v -3 -4 0
v -3 -3 0
v -2 -3 0
v -1 -4 0
v -2 -4 0
v -2 -3 0
v -1 -3 0
v 0 -4 0
v -1 -4 0
v -1 -3 0
v 0 -3 0
v -24 -5 0
v -25 -5 0
v -25 -4 0
v -24 -4 0
v -5 -5 0
v -6 -5 0
v -6 -4 0
v -5 -4 0
v -4 -5 0
v -5 -5 0
v -5 -4 0
v -4 -4 0
v -3 -5 0
v -4 -5 0
v -4 -4 0
v -3 -4 0
v -2 -5 0
v -3 -5 0
v -3 -4 0
v -2 -4 0
v -1 -5 0
v -2 -5 0
v -2 -4 0
v -1 -4 0
v 0 -5 0
v -1 -5 0
v -1 -4 0
v 0 -4 0
v -24 -6 0
v -25 -6 0
v -25 -5 0
v -24 -5 0
v -20 -6 0
v -21 -6 0
v -21 -5 0
v -20 -5 0
v -19 -6 0
v -20 -6 0
v -20 -5 0
v -19 -5 0
v -5 -6 0
v -6 -6 0
v -6 -5 0
v -5 -5 0
v -4 -6 0
v -5 -6 0
v -5 -5 0
v -4 -5 0
v -3 -6 0
v -4 -6 0
v -4 -5 0
v -3 -5 0
v -2 -6 0
v -3 -6 0
v -3 -5 0
v -2 -5 0
v -1 -6 0
v -2 -6 0
v -2 -5 0
v -1 -5 0
v 0 -6 0
v -1 -6 0
v -1 -5 0
v 0 -5 0
v -24 -7 0
v -25 -7 0
v -25 -6 0
v -24 -6 0
v -20 -7 0
v -21 -7 0
v -21 -6 0
v -20 -6 0
v -19 -7 0
v -20 -7 0
v -20 -6 0
v -19 -6 0
v -5 -7 0
v -6 -7 0
v -6 -6 0
v -5 -6 0
v -4 -7 0
v -5 -7 0
v -5 -6 0
v -4 -6 0
v -3 -7 0
v -4 -7 0
v -4 -6 0
v -3 -6 0
v -2 -7 0
v -3 -7 0
v -3 -6 0
v -2 -6 0
v -1 -7 0
v -2 -7 0
v -2 -6 0
v -1 -6 0
v 0 -7 0
v -1 -7 0
v -1 -6 0
v 0 -6 0
v -24 -8 0
v -25 -8 0
v -25 -7 0
v -24 -7 0
v -18 -8 0
v -19 -8 0
v -19 -7 0
v -18 -7 0
v -9 -8 0
v -10 -8 0
v -10 -7 0
v -9 -7 0
v 0 -8 0
v -1 -8 0
v -1 -7 0
v 0 -7 0
v -24 -9 0
v -25 -9 0
v -25 -8 0
v -24 -8 0
v -21 -9 0
v -22 -9 0
v -22 -8 0
v -21 -8 0
v -9 -9 0
v -10 -9 0
v -10 -8 0
v -9 -8 0
v 0 -9 0
v -1 -9 0
v -1 -8 0
v 0 -8 0
v -24 -10 0
v -25 -10 0
v -25 -9 0
v -24 -9 0
v 0 -10 0
v -1 -10 0
v -1 -9 0
v 0 -9 0
v 0 -11 0
v -1 -11 0
v -1 -10 0
v 0 -10 0
v 0 -12 0
v -1 -12 0
v -1 -11 0
v 0 -11 0
v -24 -13 0
v -25 -13 0
v -25 -12 0
v -24 -12 0
v -17 -13 0
v -18 -13 0
v -18 -12 0
v -17 -12 0
v -16 -13 0
v -17 -13 0
v -17 -12 0
v -16 -12 0
v 0 -13 0
v -1 -13 0
v -1 -12 0
v 0 -12 0
v -24 -14 0
v -25 -14 0
v -25 -13 0
v -24 -13 0
v -17 -14 0
v -18 -14 0
v -18 -13 0
v -17 -13 0
v -16 -14 0
v -17 -14 0
v -17 -13 0
v -16 -13 0
v -24 -15 0
v -25 -15 0
v -25 -14 0
v -24 -14 0
v -24 -16 0
v -25 -16 0
v -25 -15 0
v -24 -15 0
v -7 -16 0
v -8 -16 0
v -8 -15 0
v -7 -15 0
v -6 -16 0
v -7 -16 0
v -7 -15 0
v -6 -15 0
v -2 -16 0
v -3 -16 0
v -3 -15 0
v -2 -15 0
v -1 -16 0
v -2 -16 0
v -2 -15 0
v -1 -15 0
v 0 -16 0
v -1 -16 0
v -1 -15 0
v 0 -15 0
v -24 -17 0
v -25 -17 0
v -25 -16 0
v -24 -16 0
v -22 -17 0
v -23 -17 0
v -23 -16 0
v -22 -16 0
v -21 -17 0
v -22 -17 0
v -22 -16 0
v -21 -16 0
v -11 -17 0
v -12 -17 0
v -12 -16 0
v -11 -16 0
v -7 -17 0
v -8 -17 0
v -8 -16 0
v -7 -16 0
v -6 -17 0
v -7 -17 0
v -7 -16 0
v -6 -16 0
v -2 -17 0
v -3 -17 0
v -3 -16 0
v -2 -16 0
v -1 -17 0
v -2 -17 0
v -2 -16 0
v -1 -16 0
v 0 -17 0
v -1 -17 0
v -1 -16 0
v 0 -16 0
v -24 -18 0
v -25 -18 0
v -25 -17 0
v -24 -17 0
v -22 -18 0
v -23 -18 0
v -23 -17 0
v -22 -17 0
v -21 -18 0
v -22 -18 0
v -22 -17 0
v -21 -17 0
v -5 -18 0
v -6 -18 0
v -6 -17 0
v -5 -17 0
v 0 -18 0
v -1 -18 0
v -1 -17 0
v 0 -17 0
v -24 -19 0
v -25 -19 0
v -25 -18 0
v -24 -18 0
v -21 -19 0
v -22 -19 0
v -22 -18 0
v -21 -18 0
v -20 -19 0
v -21 -19 0
v -21 -18 0
v -20 -18 0
v -19 -19 0
v -20 -19 0
v -20 -18 0
v -19 -18 0
v -17 -19 0
v -18 -19 0
v -18 -18 0
v -17 -18 0
v 0 -19 0
v -1 -19 0
v -1 -18 0
v 0 -18 0
v -24 -20 0
v -25 -20 0
v -25 -19 0
v -24 -19 0
v -21 -20 0
v -22 -20 0
v -22 -19 0
v -21 -19 0
v -20 -20 0
v -21 -20 0
v -21 -19 0
v -20 -19 0
v -19 -20 0
v -20 -20 0
v -20 -19 0
v -19 -19 0
v -1 -20 0
v -2 -20 0
v -2 -19 0
v -1 -19 0
v 0 -20 0
v -1 -20 0
v -1 -19 0
v 0 -19 0
v -24 -21 0
v -25 -21 0
v -25 -20 0
v -24 -20 0
v -17 -21 0
v -18 -21 0
v -18 -20 0
v -17 -20 0
v -16 -21 0
v -17 -21 0
v -17 -20 0
v -16 -20 0
v -15 -21 0
v -16 -21 0
v -16 -20 0
v -15 -20 0
v -14 -21 0
v -15 -21 0
v -15 -20 0
v -14 -20 0
v -13 -21 0
v -14 -21 0
v -14 -20 0
v -13 -20 0
v 0 -21 0
v -1 -21 0
v -1 -20 0
v 0 -20 0
v -24 -22 0
v -25 -22 0
v -25 -21 0
v -24 -21 0
v -17 -22 0
v -18 -22 0
v -18 -21 0
v -17 -21 0
v -16 -22 0
v -17 -22 0
v -17 -21 0
v -16 -21 0
v -15 -22 0
v -16 -22 0
v -16 -21 0
v -15 -21 0
v -14 -22 0
v -15 -22 0
v -15 -21 0
v -14 -21 0
v -13 -22 0
v -14 -22 0
v -14 -21 0
v -13 -21 0
v -5 -22 0
v -6 -22 0
v -6 -21 0
v -5 -21 0
v -4 -22 0
v -5 -22 0
v -5 -21 0
v -4 -21 0
v 0 -22 0
v -1 -22 0
v -1 -21 0
v 0 -21 0
v -24 -23 0
v -25 -23 0
v -25 -22 0
v -24 -22 0
v -17 -23 0
v -18 -23 0
v -18 -22 0
v -17 -22 0
v -16 -23 0
v -17 -23 0
v -17 -22 0
v -16 -22 0
v -15 -23 0
v -16 -23 0
v -16 -22 0
v -15 -22 0
v -14 -23 0
v -15 -23 0
v -15 -22 0
v -14 -22 0
v -13 -23 0
v -14 -23 0
v -14 -22 0
v -13 -22 0
v -5 -23 0
v -6 -23 0
v -6 -22 0
v -5 -22 0
v -4 -23 0
v -5 -23 0
v -5 -22 0
v -4 -22 0
v 0 -23 0
v -1 -23 0
v -1 -22 0
v 0 -22 0
v -24 -24 0
v -25 -24 0
v -25 -23 0
v -24 -23 0
v -17 -24 0
v -18 -24 0
v -18 -23 0
v -17 -23 0
v -16 -24 0
v -17 -24 0
v -17 -23 0
v -16 -23 0
v -15 -24 0
v -16 -24 0
v -16 -23 0
v -15 -23 0
v -14 -24 0
v -15 -24 0
v -15 -23 0
v -14 -23 0
v -13 -24 0
v -14 -24 0
v -14 -23 0
v -13 -23 0
v 0 -24 0
v -1 -24 0
v -1 -23 0
v 0 -23 0
v -24 -25 0
v -25 -25 0
v -25 -24 0
v -24 -24 0
v -23 -25 0
v -24 -25 0
v -24 -24 0
v -23 -24 0
v -22 -25 0
v -23 -25 0
v -23 -24 0
v -22 -24 0
v -21 -25 0
v -22 -25 0
v -22 -24 0
v -21 -24 0
v -20 -25 0
v -21 -25 0
v -21 -24 0
v -20 -24 0
v -19 -25 0
v -20 -25 0
v -20 -24 0
v -19 -24 0
v -18 -25 0
v -19 -25 0
v -19 -24 0
v -18 -24 0
v -17 -25 0
v -18 -25 0
v -18 -24 0
v -17 -24 0
v -16 -25 0
v -17 -25 0
v -17 -24 0
v -16 -24 0
v -15 -25 0
v -16 -25 0
v -16 -24 0
v -15 -24 0
v -14 -25 0
v -15 -25 0
v -15 -24 0
v -14 -24 0
v -13 -25 0
v -14 -25 0
v -14 -24 0
v -13 -24 0
v -12 -25 0
v -13 -25 0
v -13 -24 0
v -12 -24 0
v -11 -25 0
v -12 -25 0
v -12 -24 0
v -11 -24 0
v -7 -25 0
v -8 -25 0
v -8 -24 0
v -7 -24 0
v -6 -25 0
v -7 -25 0
v -7 -24 0
v -6 -24 0
v -5 -25 0
v -6 -25 0
v -6 -24 0
v -5 -24 0
v -4 -25 0
v -5 -25 0
v -5 -24 0
v -4 -24 0
v -3 -25 0
v -4 -25 0
v -4 -24 0
v -3 -24 0
v -2 -25 0
v -3 -25 0
v -3 -24 0
v -2 -24 0
v -1 -25 0
v -2 -25 0
v -2 -24 0
v -1 -24 0
v 0 -25 0
v -1 -25 0
v -1 -24 0
v 0 -24 0

# Texture cooridinates (Count = 124)
vt 0.075 0.5
vt 0.1 0.5
vt 0.1 0.5277778
vt 0.075 0.5277778
vt 0.125 0.5
vt 0.125 0.5277778
vt 0.05 0.5
vt 0.05 0.5277778
vt 0.1 0.4722222
vt 0.125 0.4722222
vt 0.25 0.9722222
vt 0.275 0.9722222
vt 0.275 1
vt 0.25 1
vt 0.225 0.9722222
vt 0.225 1
vt 0.2 0.9722222
vt 0.2 1
vt 0.175 0.9722222
vt 0.175 1
vt 0.15 0.9722222
vt 0.15 1
vt 0.175 0.8333333
vt 0.2 0.8333333
vt 0.2 0.8611111
vt 0.175 0.8611111
vt 0.25 0.9444444
vt 0.275 0.9444444
vt 0.225 0.9444444
vt 0.2 0.9444444
vt 0.175 0.9444444
vt 0.15 0.9444444
vt 0.25 0.9166667
vt 0.275 0.9166667
vt 0.225 0.9166667
vt 0.2 0.9166667
vt 0.175 0.9166667
vt 0.15 0.9166667
vt 0.15 0.5277778
vt 0.175 0.5277778
vt 0.175 0.5555556
vt 0.15 0.5555556
vt 0.125 0.5555556
vt 0.25 0.8888889
vt 0.275 0.8888889
vt 0.225 0.8888889
vt 0.2 0.8888889
vt 0.175 0.8888889
vt 0.15 0.8888889
vt 0.15 0.5
vt 0.175 0.5
vt 0.25 0.8611111
vt 0.275 0.8611111
vt 0.225 0.8611111
vt 0.15 0.8611111
vt 0.225 0.8333333
vt 0.25 0.8333333
vt 0 0.4722222
vt 0.025 0.4722222
vt 0.025 0.5
vt 0 0.5
vt 0.025 0.5277778
vt 0 0.5277778
vt 0.125 0.9444444
vt 0.125 0.9722222
vt 0.1 0.9444444
vt 0.1 0.9722222
vt 0.125 0.9166667
vt 0.1 0.9166667
vt 0.8 0.8888889
vt 0.825 0.8888889
vt 0.825 0.9166667
vt 0.8 0.9166667
vt 0.775 0.8888889
vt 0.775 0.9166667
vt 0.8 0.8611111
vt 0.825 0.8611111
vt 0.775 0.8611111
vt 0.125 0.8333333
vt 0.15 0.8333333
vt 0.125 0.8611111
vt 0.1 0.8333333
vt 0.1 0.8611111
vt 0.075 0.8333333
vt 0.075 0.8611111
vt 0 0.9722222
vt 0.025 0.9722222
vt 0.025 1
vt 0 1
vt 0.375 0.9722222
vt 0.4 0.9722222
vt 0.4 1
vt 0.375 1
vt 0.35 0.9722222
vt 0.35 1
vt 0.325 0.9722222
vt 0.325 1
vt 0.3 0.9722222
vt 0.3 1
vt 0.375 0.9444444
vt 0.4 0.9444444
vt 0.35 0.9444444
vt 0.325 0.9444444
vt 0.3 0.9444444
vt 0.375 0.9166667
vt 0.4 0.9166667
vt 0.35 0.9166667
vt 0.325 0.9166667
vt 0.3 0.9166667
vt 0.375 0.8888889
vt 0.4 0.8888889
vt 0.35 0.8888889
vt 0.325 0.8888889
vt 0.3 0.8888889
vt 0 0.4444444
vt 0.025 0.4444444
vt 0.375 0.8611111
vt 0.4 0.8611111
vt 0.35 0.8611111
vt 0.325 0.8611111
vt 0.3 0.8611111
vt 0.05 0.4444444
vt 0.05 0.4722222
vt 0.075 0.4722222

# Normal
vn 0 0 -1

# Mesh description
g OverworldTest_mesh_0002

# Faces
f 1/1/1 2/2/1 3/3/1 4/4/1
f 5/2/1 6/5/1 7/6/1 8/3/1
f 9/2/1 10/5/1 11/6/1 12/3/1
f 13/2/1 14/5/1 15/6/1 16/3/1
f 17/2/1 18/5/1 19/6/1 20/3/1
f 21/2/1 22/5/1 23/6/1 24/3/1
f 25/2/1 26/5/1 27/6/1 28/3/1
f 29/2/1 30/5/1 31/6/1 32/3/1
f 33/2/1 34/5/1 35/6/1 36/3/1
f 37/2/1 38/5/1 39/6/1 40/3/1
f 41/7/1 42/1/1 43/4/1 44/8/1
f 45/1/1 46/2/1 47/3/1 48/4/1
f 49/2/1 50/5/1 51/6/1 52/3/1
f 53/2/1 54/5/1 55/6/1 56/3/1
f 57/2/1 58/5/1 59/6/1 60/3/1
f 61/2/1 62/5/1 63/6/1 64/3/1
f 65/2/1 66/5/1 67/6/1 68/3/1
f 69/2/1 70/5/1 71/6/1 72/3/1
f 73/2/1 74/5/1 75/6/1 76/3/1
f 77/2/1 78/5/1 79/6/1 80/3/1
f 81/2/1 82/5/1 83/6/1 84/3/1
f 85/7/1 86/1/1 87/4/1 88/8/1
f 89/9/1 90/10/1 91/5/1 92/2/1
f 93/9/1 94/10/1 95/5/1 96/2/1
f 97/9/1 98/10/1 99/5/1 100/2/1
f 101/11/1 102/12/1 103/13/1 104/14/1
f 105/15/1 106/11/1 107/14/1 108/16/1
f 109/17/1 110/15/1 111/16/1 112/18/1
f 113/19/1 114/17/1 115/18/1 116/20/1
f 117/21/1 118/19/1 119/20/1 120/22/1
f 121/9/1 122/10/1 123/5/1 124/2/1
f 125/9/1 126/10/1 127/5/1 128/2/1
f 129/23/1 130/24/1 131/25/1 132/26/1
f 133/27/1 134/28/1 135/12/1 136/11/1
f 137/29/1 138/27/1 139/11/1 140/15/1
f 141/30/1 142/29/1 143/15/1 144/17/1
f 145/31/1 146/30/1 147/17/1 148/19/1
f 149/32/1 150/31/1 151/19/1 152/21/1
f 153/9/1 154/10/1 155/5/1 156/2/1
f 157/9/1 158/10/1 159/5/1 160/2/1
f 161/33/1 162/34/1 163/28/1 164/27/1
f 165/35/1 166/33/1 167/27/1 168/29/1
f 169/36/1 170/35/1 171/29/1 172/30/1
f 173/37/1 174/36/1 175/30/1 176/31/1
f 177/38/1 178/37/1 179/31/1 180/32/1
f 181/9/1 182/10/1 183/5/1 184/2/1
f 185/9/1 186/10/1 187/5/1 188/2/1
f 189/39/1 190/40/1 191/41/1 192/42/1
f 193/6/1 194/39/1 195/42/1 196/43/1
f 197/44/1 198/45/1 199/34/1 200/33/1
f 201/46/1 202/44/1 203/33/1 204/35/1
f 205/47/1 206/46/1 207/35/1 208/36/1
f 209/48/1 210/47/1 211/36/1 212/37/1
f 213/49/1 214/48/1 215/37/1 216/38/1
f 217/9/1 218/10/1 219/5/1 220/2/1
f 221/9/1 222/10/1 223/5/1 224/2/1
f 225/50/1 226/51/1 227/40/1 228/39/1
f 229/5/1 230/50/1 231/39/1 232/6/1
f 233/52/1 234/53/1 235/45/1 236/44/1
f 237/54/1 238/52/1 239/44/1 240/46/1
f 241/25/1 242/54/1 243/46/1 244/47/1
f 245/26/1 246/25/1 247/47/1 248/48/1
f 249/55/1 250/26/1 251/48/1 252/49/1
f 253/9/1 254/10/1 255/5/1 256/2/1
f 257/9/1 258/10/1 259/5/1 260/2/1
f 261/23/1 262/24/1 263/25/1 264/26/1
f 265/23/1 266/24/1 267/25/1 268/26/1
f 269/9/1 270/10/1 271/5/1 272/2/1
f 273/9/1 274/10/1 275/5/1 276/2/1
f 277/23/1 278/24/1 279/25/1 280/26/1
f 281/56/1 282/57/1 283/52/1 284/54/1
f 285/9/1 286/10/1 287/5/1 288/2/1
f 289/58/1 290/59/1 291/60/1 292/61/1
f 293/9/1 294/10/1 295/5/1 296/2/1
f 297/9/1 298/10/1 299/5/1 300/2/1
f 301/9/1 302/10/1 303/5/1 304/2/1
f 305/61/1 306/60/1 307/62/1 308/63/1
f 309/64/1 310/32/1 311/21/1 312/65/1
f 313/66/1 314/64/1 315/65/1 316/67/1
f 317/58/1 318/59/1 319/60/1 320/61/1
f 321/9/1 322/10/1 323/5/1 324/2/1
f 325/68/1 326/38/1 327/32/1 328/64/1
f 329/69/1 330/68/1 331/64/1 332/66/1
f 333/9/1 334/10/1 335/5/1 336/2/1
f 337/9/1 338/10/1 339/5/1 340/2/1
f 341/70/1 342/71/1 343/72/1 344/73/1
f 345/74/1 346/70/1 347/73/1 348/75/1
f 349/39/1 350/40/1 351/41/1 352/42/1
f 353/6/1 354/39/1 355/42/1 356/43/1
f 357/61/1 358/60/1 359/62/1 360/63/1
f 361/9/1 362/10/1 363/5/1 364/2/1
f 365/70/1 366/71/1 367/72/1 368/73/1
f 369/74/1 370/70/1 371/73/1 372/75/1
f 373/56/1 374/57/1 375/52/1 376/54/1
f 377/76/1 378/77/1 379/71/1 380/70/1
f 381/78/1 382/76/1 383/70/1 384/74/1
f 385/50/1 386/51/1 387/40/1 388/39/1
f 389/5/1 390/50/1 391/39/1 392/6/1
f 393/9/1 394/10/1 395/5/1 396/2/1
f 397/9/1 398/10/1 399/5/1 400/2/1
f 401/76/1 402/77/1 403/71/1 404/70/1
f 405/78/1 406/76/1 407/70/1 408/74/1
f 409/56/1 410/57/1 411/52/1 412/54/1
f 413/9/1 414/10/1 415/5/1 416/2/1
f 417/9/1 418/10/1 419/5/1 420/2/1
f 421/79/1 422/80/1 423/55/1 424/81/1
f 425/82/1 426/79/1 427/81/1 428/83/1
f 429/84/1 430/82/1 431/83/1 432/85/1
f 433/23/1 434/24/1 435/25/1 436/26/1
f 437/9/1 438/10/1 439/5/1 440/2/1
f 441/9/1 442/10/1 443/5/1 444/2/1
f 445/79/1 446/80/1 447/55/1 448/81/1
f 449/82/1 450/79/1 451/81/1 452/83/1
f 453/84/1 454/82/1 455/83/1 456/85/1
f 457/86/1 458/87/1 459/88/1 460/89/1
f 461/9/1 462/10/1 463/5/1 464/2/1
f 465/9/1 466/10/1 467/5/1 468/2/1
f 469/90/1 470/91/1 471/92/1 472/93/1
f 473/94/1 474/90/1 475/93/1 476/95/1
f 477/96/1 478/94/1 479/95/1 480/97/1
f 481/98/1 482/96/1 483/97/1 484/99/1
f 485/12/1 486/98/1 487/99/1 488/13/1
f 489/9/1 490/10/1 491/5/1 492/2/1
f 493/9/1 494/10/1 495/5/1 496/2/1
f 497/100/1 498/101/1 499/91/1 500/90/1
f 501/102/1 502/100/1 503/90/1 504/94/1
f 505/103/1 506/102/1 507/94/1 508/96/1
f 509/104/1 510/103/1 511/96/1 512/98/1
f 513/28/1 514/104/1 515/98/1 516/12/1
f 517/39/1 518/40/1 519/41/1 520/42/1
f 521/6/1 522/39/1 523/42/1 524/43/1
f 525/9/1 526/10/1 527/5/1 528/2/1
f 529/9/1 530/10/1 531/5/1 532/2/1
f 533/105/1 534/106/1 535/101/1 536/100/1
f 537/107/1 538/105/1 539/100/1 540/102/1
f 541/108/1 542/107/1 543/102/1 544/103/1
f 545/109/1 546/108/1 547/103/1 548/104/1
f 549/34/1 550/109/1 551/104/1 552/28/1
f 553/50/1 554/51/1 555/40/1 556/39/1
f 557/5/1 558/50/1 559/39/1 560/6/1
f 561/9/1 562/10/1 563/5/1 564/2/1
f 565/9/1 566/10/1 567/5/1 568/2/1
f 569/110/1 570/111/1 571/106/1 572/105/1
f 573/112/1 574/110/1 575/105/1 576/107/1
f 577/113/1 578/112/1 579/107/1 580/108/1
f 581/114/1 582/113/1 583/108/1 584/109/1
f 585/45/1 586/114/1 587/109/1 588/34/1
f 589/9/1 590/10/1 591/5/1 592/2/1
f 593/2/1 594/5/1 595/6/1 596/3/1
f 597/2/1 598/5/1 599/6/1 600/3/1
f 601/2/1 602/5/1 603/6/1 604/3/1
f 605/2/1 606/5/1 607/6/1 608/3/1
f 609/2/1 610/5/1 611/6/1 612/3/1
f 613/2/1 614/5/1 615/6/1 616/3/1
f 617/115/1 618/116/1 619/59/1 620/58/1
f 621/117/1 622/118/1 623/111/1 624/110/1
f 625/119/1 626/117/1 627/110/1 628/112/1
f 629/120/1 630/119/1 631/112/1 632/113/1
f 633/121/1 634/120/1 635/113/1 636/114/1
f 637/53/1 638/121/1 639/114/1 640/45/1
f 641/116/1 642/122/1 643/123/1 644/59/1
f 645/115/1 646/116/1 647/59/1 648/58/1
f 649/116/1 650/122/1 651/123/1 652/59/1
f 653/2/1 654/5/1 655/6/1 656/3/1
f 657/2/1 658/5/1 659/6/1 660/3/1
f 661/2/1 662/5/1 663/6/1 664/3/1
f 665/2/1 666/5/1 667/6/1 668/3/1
f 669/2/1 670/5/1 671/6/1 672/3/1
f 673/2/1 674/5/1 675/6/1 676/3/1
f 677/123/1 678/124/1 679/1/1 680/7/1

